<?xml version="1.0" standalone="no"?><!DOCTYPE svg PUBLIC "-//W3C//DTD SVG 1.1//EN" "http://www.w3.org/Graphics/SVG/1.1/DTD/svg11.dtd"><svg height="1024" node-id="1" sillyvg="true" template-height="1024" template-width="1024" version="1.1" viewBox="0 0 1024 1024" width="1024" xmlns="http://www.w3.org/2000/svg" xmlns:xlink="http://www.w3.org/1999/xlink"><defs node-id="221"></defs><g node-id="738"><g node-id="815"><path d="M 969.51 105.81 C 970.53 104.38 971.53 102.97 972.49 101.61 C 971.19 103.46 970.15 104.90 969.51 105.81 Z M 969.51 105.81 C 969.30 106.10 969.11 106.36 968.91 106.66 C 969.03 106.48 969.25 106.18 969.51 105.81 Z M 1082.49 304.08 C 1090.63 217.61 1030.98 159.53 1030.98 159.53 C 989.33 133.30 969.57 106.46 969.57 106.46 C 969.57 106.46 969.18 106.77 968.47 107.29 C 968.55 107.16 968.65 107.03 968.73 106.90 L 966.19 106.76 C 969.88 102.97 973.56 98.83 977.24 94.41 C 977.43 94.32 977.62 94.25 977.81 94.16 C 981.00 92.82 983.95 91.30 986.73 89.64 L 986.74 89.65 C 986.74 89.65 986.80 89.61 986.92 89.53 C 990.71 87.23 994.12 84.63 997.18 81.80 C 1007.49 87.49 1021.38 82.22 1028.65 69.66 C 1033.89 60.61 1034.29 50.22 1030.47 42.59 C 1038.73 28.41 1045.00 11.36 1045.62 -8.18 C 1050.38 0.08 1052.66 7.15 1052.66 7.15 C 1060.26 -34.27 1029.26 -73.60 1029.26 -73.60 L 1029.26 -73.56 C 1013.90 -98.57 991.08 -107.23 974.26 -110.03 C 959.15 -121.82 940.41 -130.53 917.57 -134.11 C 897.22 -137.30 880.01 -131.79 865.83 -121.10 L 865.84 -121.12 C 865.84 -121.12 865.76 -121.05 865.76 -121.04 C 861.52 -117.84 857.56 -114.19 853.87 -110.17 C 843.70 -101.83 828.82 -92.02 816.39 -93.50 C 816.39 -93.50 824.82 -85.99 835.40 -83.05 C 827.28 -67.24 821.74 -49.64 818.75 -32.97 C 801.25 8.39 808.72 62.07 829.33 99.51 C 798.41 115.78 775.53 141.06 750.77 167.48 C 750.77 167.48 690.11 270.28 701.37 422.45 L 712.48 426.71 L 711.03 431.91 C 711.03 431.91 689.84 444.82 689.52 460.00 C 689.20 475.18 681.66 506.20 704.22 469.20 C 704.22 469.20 704.93 519.00 714.93 518.49 C 721.41 518.17 723.29 501.79 723.84 490.28 C 724.14 501.02 726.08 515.68 734.36 515.68 C 747.41 515.68 738.52 471.57 738.52 471.57 C 738.52 471.57 746.54 507.32 752.42 507.32 C 755.56 507.32 756.96 489.34 755.67 470.73 L 764.99 475.80 L 798.08 636.05 L 812.67 744.62 C 812.67 744.62 816.85 755.55 850.44 756.95 C 852.45 757.03 854.83 757.13 857.43 757.19 C 855.21 766.00 849.03 778.93 832.32 772.32 C 792.73 756.69 786.83 789.08 786.83 789.08 C 786.83 789.08 785.33 799.40 790.03 799.40 L 790.03 799.38 L 838.70 799.14 L 857.05 791.45 L 857.05 798.64 L 884.19 798.64 L 884.19 754.58 C 888.41 753.38 892.27 751.64 895.22 749.16 L 895.22 605.07 L 919.24 749.48 C 919.24 749.48 925.93 753.61 938.97 755.28 L 938.97 798.64 L 966.10 798.64 L 966.10 791.45 L 984.45 799.14 L 1033.13 799.38 L 1033.13 799.40 C 1041.11 799.40 1036.32 789.08 1036.32 789.08 C 1036.32 789.08 1028.94 750.39 990.84 772.32 C 973.48 782.31 967.28 764.04 965.33 754.83 C 972.10 753.84 979.60 752.17 987.84 749.51 L 998.07 626.91 L 1025.02 509.93 C 1025.79 509.19 1026.56 508.07 1027.30 506.49 C 1035.95 487.85 1038.86 500.34 1040.69 509.68 C 1043.16 522.31 1077.44 513.49 1077.44 491.16 C 1077.44 470.43 1059.06 473.75 1056.41 458.14 L 1068.38 454.15 L 1082.49 304.08 Z" fill="#6e6e96" fill-opacity="0.12" fill-rule="nonzero" group-id="1,78" hidden="true" node-id="228" stroke="none" target-height="936.699" target-width="408.976" target-x="681.65533" target-y="-137.30106" visibility="hidden"></path></g><g node-id="816"><path d="M 722.97 150.11 C 723.87 151.36 724.79 152.68 725.75 154.00 C 725.15 153.16 724.19 151.82 722.97 150.11 Z M 726.31 154.79 C 726.12 154.53 725.95 154.27 725.75 154.01 C 725.99 154.35 726.19 154.62 726.31 154.79 Z M 633.75 478.11 L 644.89 481.82 C 642.42 496.35 625.31 493.27 625.31 512.54 C 625.31 533.33 657.21 541.54 659.49 529.78 C 661.19 521.08 663.91 509.47 671.95 526.81 C 672.64 528.30 673.35 529.33 674.07 530.03 L 699.15 638.87 L 708.66 752.94 C 716.33 755.42 723.31 756.99 729.62 757.90 C 727.79 766.47 722.02 783.46 705.87 774.18 C 670.41 753.77 663.54 789.77 663.54 789.77 C 663.54 789.77 659.09 799.37 666.51 799.37 L 666.51 799.35 L 711.81 799.13 L 728.89 791.98 L 728.89 798.66 L 754.14 798.66 L 754.14 758.33 C 766.27 756.76 772.50 752.92 772.50 752.92 L 794.84 618.54 L 794.84 752.63 C 797.60 754.93 801.18 756.53 805.10 757.66 L 805.10 798.66 L 830.37 798.66 L 830.37 791.98 L 847.42 799.13 L 892.74 799.35 L 892.74 799.37 C 897.10 799.37 895.69 789.77 895.69 789.77 C 895.69 789.77 890.21 759.63 853.38 774.18 C 837.83 780.32 832.07 768.28 829.99 760.10 C 832.43 760.05 834.65 759.96 836.50 759.88 C 867.76 758.57 871.66 748.38 871.66 748.38 L 885.23 647.36 L 916.02 498.24 L 924.68 493.54 C 923.49 510.85 924.78 527.58 927.73 527.58 C 933.21 527.58 940.66 494.33 940.66 494.33 C 940.66 494.33 932.39 535.36 944.54 535.36 C 952.24 535.36 954.03 521.72 954.32 511.73 C 954.81 522.45 956.59 537.68 962.60 538.00 C 971.90 538.48 972.57 492.13 972.57 492.13 C 993.57 526.56 986.55 497.70 986.26 483.57 C 985.96 469.43 966.23 457.43 966.23 457.43 L 964.89 452.59 L 975.22 448.62 C 985.70 307.04 929.27 211.39 929.27 211.39 C 906.23 186.81 884.93 163.28 856.16 148.14 C 875.35 113.30 882.29 63.35 866.02 24.87 C 863.24 9.37 858.08 -7.00 850.53 -21.72 C 860.39 -24.46 868.22 -31.45 868.22 -31.45 C 856.66 -30.08 842.81 -39.20 833.35 -46.96 C 829.92 -50.70 826.22 -54.10 822.29 -57.08 C 822.28 -57.09 822.21 -57.16 822.21 -57.16 L 822.22 -57.14 C 809.02 -67.07 792.99 -72.21 774.07 -69.24 C 752.81 -65.91 735.38 -57.80 721.30 -46.83 C 705.65 -44.22 684.44 -36.17 670.15 -12.89 L 670.15 -12.94 C 670.15 -12.94 641.29 23.66 648.37 62.21 C 648.37 62.21 650.50 55.62 654.93 47.94 C 655.48 66.11 661.32 81.99 669.00 95.18 C 665.47 102.27 665.83 111.94 670.71 120.36 C 677.47 132.06 690.41 136.95 699.99 131.68 C 702.84 134.29 706.01 136.71 709.54 138.87 C 709.64 138.95 709.71 138.98 709.71 138.98 L 709.71 138.96 C 712.29 140.50 715.03 141.91 718.02 143.17 C 718.20 143.25 718.38 143.31 718.56 143.40 C 721.98 147.52 725.41 151.37 728.83 154.90 L 726.47 155.03 C 726.55 155.15 726.63 155.27 726.71 155.39 C 726.05 154.91 725.68 154.62 725.68 154.62 C 725.68 154.62 707.30 179.61 668.54 204.00 C 668.54 204.00 613.03 258.04 620.60 338.51 L 633.75 478.11 Z" fill="#6e6e96" fill-opacity="0.12" fill-rule="nonzero" group-id="1,79" hidden="true" node-id="233" stroke="none" target-height="871.58405" target-width="380.5409" target-x="613.0263" target-y="-72.21306" visibility="hidden"></path></g><g node-id="817"><path d="M 586.79 105.81 C 587.81 104.38 588.81 102.97 589.77 101.61 C 588.46 103.46 587.44 104.90 586.79 105.81 Z M 586.79 105.81 C 586.58 106.10 586.39 106.36 586.19 106.66 C 586.31 106.48 586.53 106.18 586.79 105.81 Z M 699.77 304.08 C 707.91 217.61 648.25 159.53 648.25 159.53 C 606.61 133.30 586.85 106.46 586.85 106.46 C 586.85 106.46 586.45 106.77 585.75 107.29 C 585.83 107.16 585.92 107.03 586.01 106.90 L 583.47 106.76 C 587.15 102.97 590.84 98.83 594.51 94.41 C 594.70 94.32 594.90 94.25 595.08 94.16 C 598.27 92.82 601.24 91.30 604.01 89.64 L 604.01 89.65 C 604.01 89.65 604.08 89.61 604.19 89.53 C 607.99 87.23 611.39 84.63 614.46 81.80 C 624.76 87.49 638.66 82.22 645.93 69.66 C 651.17 60.61 651.56 50.21 647.76 42.59 C 656.01 28.41 662.29 11.36 662.89 -8.18 C 667.65 0.08 669.94 7.15 669.94 7.15 C 677.54 -34.27 646.53 -73.60 646.53 -73.60 L 646.53 -73.56 C 631.17 -98.57 608.37 -107.23 591.55 -110.03 C 576.44 -121.82 557.71 -130.54 534.86 -134.12 C 514.52 -137.31 497.30 -131.79 483.12 -121.11 L 483.12 -121.13 C 483.12 -121.13 483.06 -121.06 483.04 -121.05 C 478.82 -117.84 474.86 -114.19 471.16 -110.17 C 460.99 -101.84 446.11 -92.02 433.68 -93.50 C 433.68 -93.50 442.11 -85.99 452.71 -83.05 C 444.58 -67.25 439.04 -49.64 436.05 -32.98 C 418.55 8.38 426.02 62.06 446.64 99.51 C 415.71 115.78 392.83 141.05 368.07 167.48 C 368.07 167.48 307.42 270.27 318.67 422.44 L 329.78 426.69 L 328.33 431.90 C 328.33 431.90 307.13 444.81 306.81 459.99 C 306.49 475.18 298.95 506.19 321.51 469.19 C 321.51 469.19 322.23 518.99 332.23 518.49 C 338.70 518.16 340.60 501.78 341.13 490.28 C 341.45 501.01 343.37 515.67 351.65 515.67 C 364.69 515.67 355.81 471.56 355.81 471.56 C 355.81 471.56 363.83 507.31 369.71 507.31 C 372.86 507.31 374.26 489.33 372.97 470.73 L 382.29 475.79 L 415.38 636.04 L 429.98 744.62 C 429.98 744.62 434.15 755.54 467.74 756.94 C 469.75 757.03 472.13 757.13 474.74 757.19 C 472.51 765.99 466.34 778.92 449.62 772.31 C 410.04 756.68 404.13 789.07 404.13 789.07 C 404.13 789.07 402.63 799.39 407.33 799.39 L 407.33 799.38 L 456.00 799.13 L 474.36 791.45 L 474.36 798.63 L 501.49 798.63 L 501.49 754.57 C 505.72 753.38 509.57 751.64 512.54 749.16 L 512.54 605.06 L 536.55 749.48 C 536.55 749.48 543.24 753.61 556.27 755.28 L 556.27 798.63 L 583.41 798.63 L 583.41 791.45 L 601.76 799.14 L 650.44 799.38 L 650.44 799.39 C 658.43 799.39 653.63 789.07 653.63 789.07 C 653.63 789.07 646.25 750.38 608.14 772.32 C 590.79 782.31 584.59 764.04 582.63 754.82 C 589.41 753.83 596.91 752.16 605.15 749.50 L 615.38 626.90 L 642.32 509.92 C 643.10 509.18 643.86 508.06 644.60 506.48 C 653.24 487.84 656.17 500.33 657.99 509.67 C 660.45 522.30 694.72 513.48 694.72 491.15 C 694.72 470.42 676.34 473.74 673.68 458.13 L 685.66 454.15 L 699.77 304.08 Z" fill="#6e6e96" fill-opacity="0.12" fill-rule="nonzero" group-id="1,80" hidden="true" node-id="238" stroke="none" target-height="936.702" target-width="408.961" target-x="298.95032" target-y="-137.30905" visibility="hidden"></path></g><g node-id="818"><path d="M 929.85 151.97 C 930.75 153.21 931.68 154.53 932.63 155.86 C 932.03 155.02 931.07 153.67 929.85 151.97 Z M 933.19 156.65 C 932.99 156.38 932.82 156.14 932.64 155.87 C 932.87 156.21 933.07 156.48 933.19 156.65 Z M 840.63 479.96 L 851.78 483.68 C 849.30 498.21 832.19 495.13 832.19 514.40 C 832.19 535.19 864.08 543.40 866.37 531.64 C 868.07 522.94 870.79 511.33 878.83 528.67 C 879.53 530.14 880.22 531.18 880.97 531.88 L 906.04 640.73 L 915.55 754.80 C 923.24 757.27 930.21 758.84 936.50 759.76 C 934.68 768.33 928.91 785.32 912.78 776.04 C 877.31 755.62 870.45 791.62 870.45 791.62 C 870.45 791.62 865.99 801.22 873.42 801.22 L 873.42 801.21 L 918.72 801.00 L 935.80 793.85 L 935.80 800.53 L 961.05 800.53 L 961.05 760.19 C 973.17 758.63 979.39 754.79 979.39 754.79 L 1001.73 620.41 L 1001.73 754.49 C 1004.50 756.79 1008.07 758.38 1011.99 759.53 L 1011.99 800.53 L 1037.24 800.53 L 1037.24 793.85 L 1054.32 801.00 L 1099.63 801.21 L 1099.63 801.22 C 1103.99 801.22 1102.59 791.62 1102.59 791.62 C 1102.59 791.62 1097.10 761.49 1060.27 776.04 C 1044.72 782.17 1038.96 770.13 1036.89 761.95 C 1039.32 761.91 1041.53 761.82 1043.40 761.72 C 1074.66 760.41 1078.55 750.24 1078.55 750.24 L 1092.12 649.22 L 1122.92 500.10 L 1131.59 495.39 C 1130.39 512.70 1131.69 529.43 1134.62 529.43 C 1140.10 529.43 1147.56 496.18 1147.56 496.18 C 1147.56 496.18 1139.29 537.22 1151.43 537.22 C 1159.13 537.22 1160.92 523.58 1161.21 513.59 C 1161.71 524.31 1163.47 539.54 1169.50 539.85 C 1178.80 540.33 1179.47 493.98 1179.47 493.98 C 1200.46 528.40 1193.45 499.56 1193.15 485.41 C 1192.85 471.27 1173.13 459.29 1173.13 459.29 L 1171.78 454.45 L 1182.12 450.47 C 1192.59 308.89 1136.16 213.26 1136.16 213.26 C 1113.12 188.67 1091.81 165.14 1063.08 150.01 C 1082.26 115.17 1089.19 65.21 1072.93 26.73 C 1070.14 11.23 1064.99 -5.14 1057.43 -19.86 C 1067.29 -22.60 1075.14 -29.59 1075.14 -29.59 C 1063.57 -28.22 1049.71 -37.34 1040.26 -45.10 C 1036.82 -48.85 1033.13 -52.24 1029.20 -55.22 C 1029.18 -55.23 1029.12 -55.30 1029.12 -55.30 L 1029.12 -55.28 C 1015.93 -65.21 999.91 -70.35 980.96 -67.39 C 959.70 -64.05 942.30 -55.94 928.19 -44.97 C 912.56 -42.35 891.33 -34.31 877.04 -11.04 L 877.03 -11.08 C 877.03 -11.08 848.18 25.52 855.26 64.07 C 855.26 64.07 857.39 57.49 861.82 49.80 C 862.38 67.97 868.22 83.85 875.89 97.03 C 872.36 104.13 872.72 113.81 877.59 122.22 C 884.36 133.92 897.29 138.82 906.88 133.53 C 909.73 136.15 912.90 138.57 916.43 140.73 C 916.52 140.81 916.60 140.83 916.60 140.83 L 916.60 140.82 C 919.17 142.37 921.92 143.79 924.91 145.04 C 925.08 145.12 925.27 145.19 925.44 145.27 C 928.86 149.39 932.30 153.25 935.72 156.77 L 933.35 156.90 C 933.43 157.01 933.52 157.14 933.60 157.26 C 932.95 156.78 932.56 156.50 932.56 156.50 C 932.56 156.50 914.19 181.48 875.43 205.88 C 875.43 205.88 819.92 259.92 827.49 340.39 L 840.63 479.96 Z" fill="#6e6e96" fill-opacity="0.12" fill-rule="nonzero" group-id="1,81" hidden="true" node-id="243" stroke="none" target-height="871.573" target-width="380.54602" target-x="819.91833" target-y="-70.349045" visibility="hidden"></path></g><path d="M -62.65 578.56 C -61.75 579.81 -60.82 581.12 -59.87 582.46 C -60.47 581.60 -61.43 580.27 -62.65 578.56 Z M -59.31 583.24 C -59.51 582.97 -59.68 582.71 -59.87 582.46 C -59.63 582.80 -59.43 583.07 -59.31 583.24 Z M -151.87 906.56 L -140.72 910.27 C -143.20 924.79 -160.31 921.71 -160.31 940.99 C -160.31 961.78 -128.42 969.98 -126.13 958.22 C -124.43 949.52 -121.71 937.91 -113.67 955.26 C -112.99 956.74 -112.28 957.76 -111.55 958.47 L -86.47 1067.32 L -76.97 1181.38 C -69.30 1183.86 -62.32 1185.43 -56.01 1186.36 C -57.84 1194.93 -63.60 1211.92 -79.75 1202.62 C -115.21 1182.21 -122.08 1218.21 -122.08 1218.21 C -122.08 1218.21 -126.53 1227.81 -119.11 1227.81 L -119.11 1227.80 L -73.81 1227.57 L -56.73 1220.42 L -56.73 1227.11 L -31.48 1227.11 L -31.48 1186.77 C -19.35 1185.21 -13.13 1181.37 -13.13 1181.37 L 9.21 1047.00 L 9.21 1181.07 C 11.97 1183.37 15.55 1184.97 19.49 1186.11 L 19.49 1227.10 L 44.74 1227.10 L 44.74 1220.42 L 61.82 1227.57 L 107.11 1227.80 L 107.11 1227.81 C 111.48 1227.81 110.09 1218.21 110.09 1218.21 C 110.09 1218.21 104.58 1188.07 67.76 1202.62 C 52.20 1208.76 46.46 1196.73 44.39 1188.54 C 46.80 1188.49 49.02 1188.42 50.90 1188.32 C 82.16 1187.01 86.03 1176.83 86.03 1176.83 L 99.62 1075.81 L 130.41 926.70 L 139.08 921.98 C 137.89 939.30 139.19 956.02 142.11 956.02 C 147.59 956.02 155.05 922.78 155.05 922.78 C 155.05 922.78 146.79 963.80 158.92 963.80 C 166.62 963.80 168.42 950.16 168.70 940.18 C 169.20 950.90 170.97 966.13 176.99 966.45 C 186.30 966.92 186.96 920.57 186.96 920.57 C 207.96 955.00 200.94 926.15 200.65 912.01 C 200.34 897.87 180.62 885.88 180.62 885.88 L 179.27 881.04 L 189.61 877.06 C 200.08 735.48 143.65 639.83 143.65 639.83 C 120.60 615.25 99.31 591.73 70.54 576.59 C 89.73 541.75 96.67 491.78 80.39 453.31 C 77.61 437.81 72.45 421.44 64.90 406.71 C 74.76 403.97 82.60 396.99 82.60 396.99 C 71.03 398.36 57.18 389.23 47.72 381.48 C 44.29 377.74 40.60 374.33 36.66 371.36 C 36.64 371.34 36.58 371.28 36.58 371.28 L 36.59 371.30 C 23.39 361.38 7.37 356.23 -11.56 359.20 C -32.82 362.53 -50.25 370.64 -64.32 381.61 C -79.96 384.23 -101.18 392.27 -115.46 415.55 L -115.47 415.51 C -115.47 415.51 -144.32 452.09 -137.25 490.66 C -137.25 490.66 -135.12 484.07 -130.69 476.38 C -130.14 494.56 -124.29 510.43 -116.62 523.62 C -120.15 530.73 -119.78 540.40 -114.91 548.82 C -108.15 560.50 -95.21 565.40 -85.63 560.12 C -82.77 562.74 -79.61 565.16 -76.07 567.31 C -75.97 567.40 -75.90 567.43 -75.90 567.43 L -75.90 567.40 C -73.34 568.95 -70.57 570.35 -67.60 571.61 C -67.42 571.69 -67.24 571.75 -67.07 571.84 C -63.65 575.96 -60.21 579.82 -56.79 583.34 L -59.16 583.47 C -59.08 583.59 -58.99 583.71 -58.91 583.83 C -59.56 583.35 -59.94 583.07 -59.94 583.07 C -59.94 583.07 -78.32 608.05 -117.08 632.45 C -117.08 632.45 -172.59 686.50 -165.01 766.96 L -151.87 906.56 Z" fill="#6e6e96" fill-opacity="0.12" fill-rule="nonzero" group-id="1,82" hidden="true" node-id="248" stroke="none" target-height="871.587" target-width="380.54602" target-x="-172.58717" target-y="356.22662" visibility="hidden"></path></g><g node-id="739"><path d="M 787.27 538.20 L 778.07 538.20 C 777.01 538.20 776.16 537.34 776.16 536.29 C 776.16 535.24 777.01 534.39 778.07 534.39 L 787.27 534.39 C 788.32 534.39 789.17 535.24 789.17 536.29 C 789.17 537.34 788.32 538.20 787.27 538.20 Z" fill="#3f3f3f" fill-rule="nonzero" group-id="2" node-id="254" stroke="none" target-height="3.8079834" target-width="13.010986" target-x="776.162" target-y="534.387"></path></g><g node-id="740"><g node-id="820"><path d="M 561.83 998.89 L 561.83 998.87 L 606.97 998.65 L 623.99 991.22 L 623.99 998.16 L 649.14 998.16 L 649.14 951.11 L 625.47 951.11 C 625.47 951.11 623.67 982.02 601.05 972.70 C 564.36 957.60 558.89 988.89 558.89 988.89 C 558.89 988.89 557.49 998.89 561.83 998.89 Z" fill="#7b7b9c" fill-rule="nonzero" group-id="3,83" node-id="260" stroke="none" target-height="47.778076" target-width="91.656006" target-x="557.487" target-y="951.107"></path><path d="M 561.83 1000.79 C 560.55 1000.79 559.43 1000.28 558.59 999.31 C 556.06 996.40 556.83 989.90 557.01 988.63 C 557.06 988.35 561.09 966.68 583.00 966.68 C 588.59 966.68 594.90 968.12 601.77 970.95 C 604.36 972.01 606.76 972.55 608.90 972.55 C 608.90 972.55 608.90 972.55 608.91 972.55 C 622.16 972.55 623.55 951.21 623.57 951.00 C 623.63 949.99 624.46 949.20 625.47 949.20 L 649.14 949.20 C 650.20 949.20 651.05 950.06 651.05 951.11 L 651.05 998.16 C 651.05 999.22 650.20 1000.07 649.14 1000.07 L 623.99 1000.07 C 622.94 1000.07 622.09 999.22 622.09 998.16 L 622.09 994.13 L 607.73 1000.39 C 607.49 1000.50 607.24 1000.55 606.98 1000.55 L 562.08 1000.78 C 562.00 1000.78 561.91 1000.79 561.83 1000.79 Z M 583.00 970.49 C 564.25 970.49 560.90 988.45 560.77 989.22 C 560.45 991.54 560.43 995.63 561.46 996.80 C 561.55 996.91 561.62 996.95 561.70 996.97 C 561.74 996.96 561.78 996.96 561.82 996.96 L 606.57 996.75 L 623.23 989.48 C 623.83 989.22 624.50 989.27 625.03 989.63 C 625.57 989.98 625.89 990.58 625.89 991.22 L 625.89 996.26 L 647.24 996.26 L 647.24 953.01 L 627.20 953.01 C 626.52 958.80 623.25 976.36 608.91 976.36 C 608.90 976.36 608.90 976.36 608.90 976.36 C 606.26 976.36 603.37 975.72 600.32 974.46 C 593.91 971.83 588.08 970.49 583.00 970.49 Z" fill="#6e6e96" fill-rule="nonzero" group-id="3,83" node-id="262" stroke="none" target-height="51.58606" target-width="94.98401" target-x="556.063" target-y="949.204"></path></g><g node-id="821"><path d="M 787.24 998.89 L 787.24 998.87 L 742.09 998.65 L 725.07 991.22 L 725.07 998.16 L 699.91 998.16 L 699.91 951.11 L 723.60 951.11 C 723.60 951.11 726.93 985.35 748.01 972.70 C 783.33 951.52 790.18 988.89 790.18 988.89 C 790.18 988.89 794.63 998.89 787.24 998.89 Z" fill="#7b7b9c" fill-rule="nonzero" group-id="3,84" node-id="267" stroke="none" target-height="47.778076" target-width="94.721924" target-x="699.91205" target-y="951.107"></path><path d="M 787.24 1000.79 C 787.15 1000.79 787.07 1000.78 786.99 1000.77 L 742.08 1000.55 C 741.83 1000.55 741.57 1000.49 741.33 1000.39 L 726.97 994.13 L 726.97 998.16 C 726.97 999.22 726.12 1000.07 725.07 1000.07 L 699.91 1000.07 C 698.86 1000.07 698.01 999.22 698.01 998.16 L 698.01 951.11 C 698.01 950.05 698.86 949.20 699.91 949.20 L 723.60 949.20 C 724.58 949.20 725.40 949.94 725.50 950.92 C 725.52 951.15 727.86 973.60 739.39 973.60 C 741.66 973.60 744.23 972.75 747.03 971.07 C 754.52 966.58 761.40 964.30 767.48 964.30 C 786.32 964.30 791.47 985.82 792.00 988.32 C 792.53 989.56 794.61 994.98 792.44 998.33 C 791.71 999.45 790.22 1000.79 787.24 1000.79 Z M 742.50 996.75 L 787.25 996.97 C 787.32 996.97 787.38 996.97 787.45 996.98 C 788.80 996.93 789.13 996.43 789.24 996.26 C 790.10 994.94 789.27 991.55 788.44 989.67 C 788.38 989.53 788.33 989.38 788.30 989.24 C 788.14 988.38 784.19 968.11 767.48 968.11 C 762.10 968.11 755.88 970.20 748.99 974.34 C 745.59 976.38 742.36 977.41 739.39 977.41 C 726.51 977.41 722.78 958.87 721.92 953.01 L 701.82 953.01 L 701.82 996.26 L 723.16 996.26 L 723.16 991.22 C 723.16 990.58 723.48 989.98 724.02 989.63 C 724.55 989.27 725.23 989.22 725.83 989.48 L 742.50 996.75 Z" fill="#6e6e96" fill-rule="nonzero" group-id="3,84" node-id="269" stroke="none" target-height="51.588013" target-width="96.599" target-x="698.009" target-y="949.202"></path></g></g><g node-id="741"><path d="M 467.61 617.45 C 467.61 617.45 445.20 622.87 440.51 636.72 C 435.82 650.58 420.19 676.76 450.79 649.62 C 450.79 649.62 441.58 681.12 450.53 683.67 C 459.48 686.23 465.32 664.77 465.32 664.77 C 465.32 664.77 452.34 689.73 463.83 693.68 C 475.32 697.62 480.29 662.17 480.29 662.17 C 480.29 662.17 476.99 680.01 482.16 681.78 C 487.34 683.56 505.34 643.33 498.02 628.20 C 490.69 613.05 502.54 606.85 502.54 606.85 L 480.36 597.61 L 467.61 617.45 Z" fill="#e3b8a8" fill-rule="nonzero" group-id="4" node-id="275" stroke="none" target-height="100.00409" target-width="85.149994" target-x="420.187" target-y="597.613"></path><path d="M 465.59 695.89 C 464.80 695.89 464.00 695.75 463.21 695.48 C 459.93 694.36 456.68 691.35 457.25 683.76 C 454.94 685.61 452.46 686.20 450.01 685.50 C 448.44 685.05 447.20 684.01 446.32 682.41 C 443.06 676.50 445.51 663.03 447.40 655.07 C 438.79 662.27 435.68 663.35 433.83 663.35 C 433.83 663.35 433.83 663.35 433.83 663.35 C 432.65 663.35 431.68 662.85 431.08 661.95 C 429.33 659.31 431.39 654.06 435.19 645.00 C 436.48 641.92 437.82 638.74 438.71 636.11 C 443.24 622.75 462.30 616.91 466.41 615.79 L 478.76 596.58 C 479.26 595.81 480.25 595.51 481.09 595.85 L 503.27 605.09 C 503.95 605.37 504.41 606.02 504.44 606.76 C 504.47 607.50 504.08 608.19 503.42 608.53 C 503.01 608.75 493.33 614.13 499.74 627.37 C 505.75 639.81 496.09 666.74 489.22 677.70 C 485.82 683.12 483.77 683.74 482.52 683.74 C 482.31 683.74 481.74 683.65 481.55 683.58 C 480.05 683.07 478.96 681.83 478.26 679.85 C 475.54 688.36 471.47 695.89 465.59 695.89 Z M 462.43 677.08 C 460.69 682.97 459.67 690.24 464.45 691.88 C 464.84 692.01 465.22 692.08 465.59 692.08 C 470.19 692.08 475.20 680.81 478.07 664.02 C 478.26 662.69 478.42 661.83 478.42 661.83 C 478.61 660.81 479.57 660.11 480.60 660.29 C 481.62 660.46 482.32 661.41 482.18 662.44 C 482.18 662.44 482.06 663.27 481.82 664.66 C 480.43 674.44 481.48 679.02 482.57 679.87 C 483.69 679.23 486.76 675.53 490.57 666.77 C 496.23 653.78 500.19 637.07 496.31 629.03 C 490.76 617.56 495.35 610.59 498.77 607.34 L 481.10 599.98 L 469.21 618.48 C 468.95 618.89 468.53 619.18 468.06 619.30 C 467.84 619.35 446.62 624.65 442.32 637.33 C 441.38 640.09 440.02 643.34 438.71 646.47 C 436.98 650.60 434.17 657.29 434.22 659.49 C 435.56 659.17 439.31 657.26 449.53 648.20 C 450.16 647.63 451.10 647.56 451.81 648.02 C 452.53 648.47 452.86 649.35 452.62 650.16 C 450.72 656.67 446.48 674.82 449.66 680.57 C 450.16 681.49 450.70 681.73 451.06 681.84 C 453.58 682.56 456.25 680.32 458.90 675.59 C 460.78 669.41 463.51 664.12 463.63 663.89 C 464.08 663.03 465.11 662.64 466.01 663.00 C 466.92 663.35 467.41 664.33 467.16 665.27 C 467.08 665.53 465.41 671.64 462.43 677.08 Z" fill="#6e6e96" fill-rule="nonzero" group-id="4" node-id="277" stroke="none" target-height="100.37598" target-width="76.425995" target-x="429.327" target-y="595.515"></path></g><g node-id="742"><path d="M 534.11 645.38 L 569.30 841.06 L 582.84 945.96 C 582.84 945.96 586.70 956.51 617.84 957.88 C 628.31 958.34 649.26 959.17 659.37 950.36 L 659.37 585.27 L 534.11 645.38 Z" fill="#b38daf" fill-rule="nonzero" group-id="5" node-id="282" stroke="none" target-height="373.90204" target-width="125.25299" target-x="534.112" target-y="585.27"></path><path d="M 627.54 960.04 L 627.54 960.04 C 623.83 960.04 620.45 959.90 617.76 959.78 C 586.26 958.40 581.49 947.82 581.05 946.62 C 581.00 946.48 580.97 946.34 580.95 946.21 L 567.41 841.31 L 532.24 645.72 C 532.08 644.88 532.51 644.03 533.29 643.66 L 658.54 583.55 C 659.13 583.27 659.82 583.30 660.38 583.66 C 660.94 584.01 661.27 584.62 661.27 585.27 L 661.27 950.36 C 661.27 950.91 661.03 951.43 660.62 951.79 C 654.25 957.34 643.43 960.04 627.54 960.04 Z M 584.69 945.43 C 585.31 946.53 590.80 954.78 617.93 955.97 C 620.57 956.09 623.89 956.23 627.54 956.23 C 641.71 956.23 651.77 953.96 657.46 949.46 L 657.46 588.30 L 536.24 646.47 L 571.18 840.72 L 584.69 945.43 Z" fill="#6e6e96" fill-rule="nonzero" group-id="5" node-id="284" stroke="none" target-height="376.77002" target-width="129.18701" target-x="532.084" target-y="583.273"></path></g><g node-id="743"><path d="M 647.80 720.41 L 681.64 950.68 C 681.64 950.68 703.30 964.83 745.24 950.68 L 754.72 832.20 L 785.85 673.26 L 647.80 657.08 L 647.80 720.41 L 647.80 720.41 Z" fill="#b38daf" fill-rule="nonzero" group-id="6" node-id="289" stroke="none" target-height="307.74805" target-width="138.05103" target-x="647.798" target-y="657.081"></path><path d="M 710.12 958.88 C 710.11 958.88 710.11 958.88 710.11 958.88 C 690.92 958.87 681.01 952.54 680.60 952.27 C 680.14 951.97 679.84 951.50 679.75 950.95 L 645.91 720.69 L 645.89 657.08 C 645.89 656.54 646.12 656.02 646.53 655.66 C 646.94 655.30 647.48 655.12 648.02 655.19 L 786.07 671.36 C 786.59 671.42 787.08 671.70 787.39 672.13 C 787.70 672.56 787.82 673.10 787.71 673.62 L 756.59 832.57 L 747.14 950.83 C 747.08 951.59 746.57 952.24 745.85 952.48 C 733.28 956.73 721.26 958.88 710.12 958.88 Z M 683.39 949.49 C 685.89 950.84 694.95 955.07 710.11 955.07 C 710.11 955.07 710.11 955.07 710.12 955.07 C 720.50 955.07 731.70 953.12 743.45 949.27 L 752.82 832.05 L 783.58 674.91 L 649.70 659.22 L 649.70 720.41 L 683.39 949.49 Z" fill="#6e6e96" fill-rule="nonzero" group-id="6" node-id="291" stroke="none" target-height="303.75403" target-width="141.92694" target-x="645.892" target-y="655.121"></path></g><g node-id="744"><path d="M 463.69 603.21 L 486.10 615.28 L 506.91 617.71 L 584.13 411.98 L 628.10 302.06 C 591.25 312.80 564.50 337.65 535.29 363.65 C 535.29 363.64 468.89 455.89 463.69 603.21 Z" fill="#b38daf" fill-rule="nonzero" group-id="7" node-id="296" stroke="none" target-height="315.64896" target-width="164.40698" target-x="463.69" target-y="302.058"></path><path d="M 506.91 619.61 C 506.84 619.61 506.77 619.61 506.69 619.60 L 485.88 617.17 C 485.64 617.14 485.41 617.07 485.20 616.96 L 462.79 604.88 C 462.15 604.54 461.76 603.86 461.79 603.14 C 464.48 526.76 483.88 465.44 499.68 427.46 C 513.49 394.26 529.61 367.26 534.26 362.49 L 534.03 362.23 L 537.73 358.93 C 565.57 334.09 591.87 310.64 627.57 300.23 C 628.26 300.03 629.02 300.24 629.51 300.78 C 630.00 301.31 630.13 302.09 629.86 302.76 L 585.89 412.69 L 508.69 618.38 C 508.41 619.12 507.70 619.61 506.91 619.61 Z M 486.68 613.43 L 505.65 615.64 L 582.35 411.31 L 624.85 305.05 C 591.87 315.75 566.78 338.13 540.27 361.77 L 536.72 364.93 C 533.66 369.25 470.99 459.68 465.64 602.09 L 486.68 613.43 Z" fill="#6e6e96" fill-rule="nonzero" group-id="7" node-id="298" stroke="none" target-height="319.585" target-width="168.374" target-x="461.76102" target-y="300.027"></path></g><g node-id="745"><path d="M 520.71 625.98 L 516.28 655.44 L 551.61 675.48 L 610.50 688.44 L 645.83 581.18 L 611.16 298.31 L 579.09 412.64 Z" fill="#b38daf" fill-rule="nonzero" group-id="8" node-id="303" stroke="none" target-height="390.1279" target-width="129.555" target-x="516.279" target-y="298.308"></path><path d="M 610.50 690.34 C 610.36 690.34 610.22 690.33 610.09 690.30 L 551.20 677.34 C 551.01 677.30 550.84 677.23 550.67 677.13 L 515.34 657.10 C 514.65 656.71 514.28 655.94 514.40 655.16 L 518.83 625.69 L 577.25 412.14 L 609.32 297.79 C 609.57 296.92 610.39 296.34 611.30 296.41 C 612.21 296.48 612.94 297.18 613.05 298.08 L 647.72 580.95 C 647.76 581.23 647.73 581.51 647.64 581.78 L 612.30 689.03 C 612.04 689.83 611.30 690.34 610.50 690.34 Z M 552.30 673.68 L 609.22 686.21 L 643.89 580.99 L 610.42 307.98 L 580.93 413.15 L 522.55 626.48 L 518.36 654.43 L 552.30 673.68 Z" fill="#6e6e96" fill-rule="nonzero" group-id="8" node-id="305" stroke="none" target-height="393.99902" target-width="133.479" target-x="514.277" target-y="296.341"></path></g><g node-id="746"><path d="M 661.53 696.69 L 725.66 697.89 L 785.86 669.57 L 784.67 530.50 L 728.25 311.27 C 728.25 311.27 665.46 376.10 626.18 522.25 C 626.20 522.26 609.19 559.97 661.53 696.69 Z" fill="#b38daf" fill-rule="nonzero" group-id="9" node-id="310" stroke="none" target-height="386.613" target-width="176.669" target-x="609.186" target-y="311.275"></path><path d="M 725.66 699.79 C 725.65 699.79 725.64 699.79 725.62 699.79 L 661.49 698.60 C 660.72 698.58 660.03 698.10 659.75 697.37 C 638.19 641.07 625.63 594.62 622.42 559.35 C 620.09 533.73 623.76 523.20 624.38 521.65 C 663.33 376.77 726.25 310.60 726.88 309.95 C 727.36 309.45 728.07 309.26 728.74 309.43 C 729.40 309.61 729.92 310.13 730.09 310.80 L 786.52 530.03 C 786.55 530.18 786.58 530.33 786.58 530.49 L 787.76 669.56 C 787.77 670.30 787.34 670.98 786.66 671.29 L 726.47 699.61 C 726.22 699.73 725.94 699.79 725.66 699.79 Z M 662.85 694.81 L 725.25 695.98 L 783.94 668.37 L 782.77 530.75 L 727.29 315.19 C 715.58 328.61 662.44 394.65 628.02 522.75 L 628.02 522.75 C 628.00 522.83 627.97 522.92 627.94 523.00 C 627.28 524.57 612.54 562.94 662.85 694.81 Z" fill="#6e6e96" fill-rule="nonzero" group-id="9" node-id="312" stroke="none" target-height="390.534" target-width="175.22601" target-x="612.541" target-y="309.258"></path></g><g node-id="747"><path d="M 600.88 304.53 C 600.88 304.53 579.10 382.65 629.33 510.14 C 629.33 510.14 667.55 399.36 727.49 311.71 C 787.43 224.05 727.49 311.71 727.49 311.71 L 600.88 304.53" fill="#ffffff" fill-rule="nonzero" group-id="10" node-id="317" stroke="none" target-height="286.092" target-width="208.33105" target-x="579.1" target-y="224.052"></path><path d="M 629.33 512.05 C 628.54 512.05 627.84 511.57 627.55 510.84 C 601.50 444.72 595.13 392.09 594.37 359.57 C 593.54 324.23 598.82 304.83 599.05 304.02 C 599.29 303.16 600.03 302.59 600.99 302.63 L 726.52 309.75 L 745.17 282.48 C 745.97 281.31 746.69 280.26 747.34 279.32 C 750.36 274.89 752.49 271.78 752.55 271.68 L 752.68 271.77 C 753.45 270.85 753.70 270.85 754.13 270.85 C 754.84 270.85 755.49 271.24 755.82 271.87 C 755.98 272.17 756.09 272.39 755.42 273.64 L 755.70 273.83 C 755.63 273.93 753.54 277.00 748.32 284.63 L 734.93 304.21 C 733.34 306.53 731.64 309.02 729.82 311.69 L 729.36 312.35 C 729.25 312.66 729.06 312.94 728.82 313.15 C 669.85 399.52 631.50 509.66 631.12 510.76 C 630.87 511.52 630.16 512.03 629.37 512.05 C 629.35 512.05 629.34 512.05 629.33 512.05 Z M 602.36 306.52 C 599.81 317.72 585.84 391.50 629.25 504.70 C 636.33 485.26 664.73 410.47 706.54 340.91 C 705.45 341.76 703.48 340.89 703.48 339.40 C 703.48 338.35 704.33 337.50 705.38 337.50 C 706.43 337.50 707.28 338.35 707.28 339.40 C 707.28 339.52 707.27 339.62 707.26 339.73 C 712.63 330.83 718.23 322.01 724.03 313.42 L 602.36 306.52 Z" fill="#6e6e96" fill-rule="nonzero" group-id="10" node-id="319" stroke="none" target-height="241.20102" target-width="170.25507" target-x="585.836" target-y="270.848"></path></g><g node-id="748"><path d="M 608.46 314.23 L 640.36 347.48 C 640.36 347.48 620.92 365.74 598.85 374.93 C 597.80 337.19 605.28 340.58 608.46 314.23 Z" fill="#ffffff" fill-rule="nonzero" group-id="11" node-id="324" stroke="none" target-height="60.704987" target-width="42.554993" target-x="597.803" target-y="314.229"></path><path d="M 598.85 376.84 C 598.49 376.84 598.13 376.73 597.82 376.53 C 597.29 376.19 596.97 375.61 596.95 374.99 C 596.30 351.61 598.94 343.58 601.74 335.08 C 603.52 329.67 605.36 324.08 606.58 314.00 C 606.66 313.27 607.16 312.65 607.86 312.42 C 608.57 312.19 609.33 312.38 609.84 312.91 L 641.73 346.16 C 642.09 346.52 642.27 347.02 642.26 347.53 C 642.25 348.04 642.03 348.52 641.66 348.86 C 640.86 349.62 621.72 367.47 599.59 376.69 C 599.35 376.79 599.10 376.84 598.85 376.84 Z M 609.82 318.39 C 608.59 326.44 606.95 331.43 605.35 336.27 C 602.67 344.44 600.33 351.54 600.69 372.06 C 617.78 364.32 633.00 351.47 637.62 347.38 L 609.82 318.39 Z" fill="#6e6e96" fill-rule="nonzero" group-id="11" node-id="326" stroke="none" target-height="64.64902" target-width="45.974" target-x="596.301" target-y="312.188"></path></g><g node-id="749"><path d="M 728.26 311.28 C 728.26 311.28 676.71 352.41 633.13 347.46 L 664.80 383.18 C 664.80 383.18 716.50 362.55 728.26 311.28 Z" fill="#ffffff" fill-rule="nonzero" group-id="12" node-id="331" stroke="none" target-height="71.89798" target-width="95.13104" target-x="633.134" target-y="311.278"></path><path d="M 664.80 385.08 C 664.25 385.08 663.73 384.85 663.37 384.44 L 631.71 348.73 C 631.18 348.14 631.08 347.29 631.45 346.59 C 631.80 345.89 632.52 345.46 633.35 345.57 C 635.69 345.84 638.14 345.97 640.61 345.97 C 681.25 345.97 726.62 310.15 727.08 309.79 C 727.71 309.28 728.59 309.24 729.28 309.67 C 729.97 310.10 730.30 310.92 730.12 311.71 C 717.99 364.57 665.28 385.08 664.80 385.08 Z M 637.68 349.72 L 665.31 380.88 C 672.78 377.54 712.65 357.97 725.03 316.11 C 712.46 325.25 675.49 349.78 640.62 349.78 C 639.63 349.78 638.65 349.76 637.68 349.72 Z" fill="#6e6e96" fill-rule="nonzero" group-id="12" node-id="333" stroke="none" target-height="75.843994" target-width="99.22101" target-x="631.081" target-y="309.236"></path></g><g node-id="750"><path d="M 634.08 521.80 C 621.86 489.49 596.65 414.91 596.61 350.15 L 581.43 369.96 L 570.59 390.23 C 570.59 390.23 598.72 480.11 632.47 525.54 L 634.08 521.80 Z" fill="#b38daf" fill-rule="nonzero" group-id="13" node-id="338" stroke="none" target-height="175.38998" target-width="63.48999" target-x="570.588" target-y="350.155"></path><path d="M 632.47 527.45 C 631.87 527.45 631.30 527.17 630.94 526.68 C 597.39 481.51 569.05 391.70 568.77 390.80 C 568.62 390.31 568.67 389.78 568.91 389.33 L 579.75 369.06 L 595.10 349.00 C 595.59 348.35 596.44 348.10 597.22 348.35 C 597.99 348.61 598.51 349.34 598.51 350.15 C 598.56 415.42 624.65 491.46 635.86 521.13 C 636.04 521.59 636.03 522.10 635.83 522.55 L 634.22 526.29 C 633.95 526.92 633.37 527.36 632.70 527.44 C 632.62 527.45 632.55 527.45 632.47 527.45 Z M 572.65 390.42 C 575.41 399.04 601.31 478.43 631.97 521.62 C 620.84 492.02 596.18 419.65 594.76 355.69 L 582.94 371.12 L 572.65 390.42 Z" fill="#6e6e96" fill-rule="nonzero" group-id="13" node-id="340" stroke="none" target-height="179.35199" target-width="67.41901" target-x="568.618" target-y="348.096"></path></g><g node-id="751"><path d="M 728.26 311.28 L 728.26 357.83 L 707.66 376.40 L 679.21 384.64 C 679.21 384.63 708.32 329.25 728.26 311.28 Z" fill="#b38daf" fill-rule="nonzero" group-id="14" node-id="345" stroke="none" target-height="73.35797" target-width="49.057007" target-x="679.208" target-y="311.278"></path><path d="M 679.21 386.54 C 678.80 386.54 678.40 386.41 678.06 386.16 C 677.59 385.80 677.30 385.24 677.30 384.64 C 677.30 382.82 707.43 327.49 726.99 309.86 C 727.55 309.36 728.35 309.24 729.04 309.54 C 729.73 309.85 730.17 310.53 730.17 311.28 L 730.17 357.83 C 730.17 358.37 729.94 358.89 729.54 359.25 L 708.93 377.81 C 708.72 378.00 708.47 378.15 708.19 378.23 L 679.74 386.47 C 679.56 386.52 679.39 386.54 679.21 386.54 Z M 726.36 315.79 C 710.26 332.57 689.63 369.40 683.03 381.55 L 706.71 374.69 L 726.36 356.99 L 726.36 315.79 Z" fill="#6e6e96" fill-rule="nonzero" group-id="14" node-id="347" stroke="none" target-height="77.30499" target-width="52.867004" target-x="677.303" target-y="309.237"></path></g><g node-id="752"><path d="M 717.80 399.67 L 623.60 546.41 C 623.60 546.41 617.71 500.42 679.23 384.62 L 707.68 376.39 L 717.80 399.67 Z" fill="#b38daf" fill-rule="nonzero" group-id="15" node-id="352" stroke="none" target-height="170.02197" target-width="100.093994" target-x="617.711" target-y="376.38702"></path><path d="M 623.60 548.31 C 623.46 548.31 623.32 548.30 623.18 548.26 C 622.39 548.09 621.81 547.45 621.71 546.65 C 621.46 544.75 616.45 498.74 677.55 383.73 C 677.79 383.27 678.21 382.94 678.70 382.79 L 707.15 374.56 C 708.07 374.30 709.04 374.75 709.43 375.63 L 719.55 398.91 C 719.81 399.50 719.75 400.17 719.41 400.70 L 625.20 547.44 C 624.84 547.99 624.24 548.31 623.60 548.31 Z M 680.53 386.23 C 632.77 476.32 626.14 524.07 625.44 540.01 L 715.65 399.50 L 706.60 378.68 L 680.53 386.23 Z" fill="#6e6e96" fill-rule="nonzero" group-id="15" node-id="354" stroke="none" target-height="174.017" target-width="103.35901" target-x="616.447" target-y="374.296"></path></g><g node-id="753"><path d="M 600.87 309.06 C 600.87 309.06 574.70 325.85 566.00 350.01 C 566.00 350.01 562.98 365.68 598.96 386.62 C 598.96 386.62 598.06 335.58 600.87 309.06" fill="#b38daf" fill-rule="nonzero" group-id="16" node-id="359" stroke="none" target-height="77.55798" target-width="37.889954" target-x="562.978" target-y="309.065"></path><path d="M 598.96 388.53 C 598.62 388.53 598.29 388.44 598.00 388.27 C 561.27 366.89 563.99 350.34 564.13 349.65 C 573.03 324.87 598.75 308.16 599.84 307.46 C 600.46 307.06 601.24 307.06 601.87 307.44 C 602.49 307.83 602.84 308.54 602.76 309.26 C 600.23 333.23 600.73 377.62 600.86 386.27 C 600.87 387.01 600.46 388.00 599.80 388.33 C 599.54 388.46 599.25 388.53 598.96 388.53 Z M 567.79 350.65 C 567.83 350.65 566.22 364.45 597.01 383.25 C 596.86 370.35 596.68 335.38 598.58 313.01 C 591.36 318.36 574.35 332.46 567.79 350.65 L 567.79 350.65 Z" fill="#6e6e96" fill-rule="nonzero" group-id="16" node-id="361" stroke="none" target-height="81.47" target-width="41.56604" target-x="561.274" target-y="307.058"></path></g><g node-id="755"><path d="M 843.56 502.22 L 823.75 654.20 L 802.86 653.06 L 781.93 653.06 L 774.08 646.00 L 784.67 530.50 L 741.25 408.16 L 728.27 311.27 C 728.27 311.27 746.59 337.19 785.20 362.54 C 785.19 362.55 840.51 418.67 843.56 502.22 Z" fill="#b38daf" fill-rule="nonzero" group-id="18" node-id="368" stroke="none" target-height="342.93503" target-width="115.28699" target-x="728.27" target-y="311.267"></path><path d="M 823.75 656.11 C 823.72 656.11 823.69 656.11 823.65 656.10 L 802.76 654.96 L 781.93 654.97 C 781.46 654.97 781.00 654.79 780.65 654.48 L 772.80 647.42 C 772.35 647.02 772.12 646.43 772.18 645.83 L 782.74 530.74 L 739.45 408.80 C 739.41 408.68 739.38 408.54 739.36 408.42 L 726.39 311.52 C 726.27 310.65 726.76 309.82 727.58 309.50 C 728.39 309.18 729.32 309.45 729.83 310.17 C 730.01 310.42 748.43 336.12 786.24 360.95 C 786.37 361.03 786.48 361.12 786.58 361.23 C 788.96 363.69 842.46 420.01 845.46 502.15 L 825.64 654.45 C 825.52 655.40 824.70 656.11 823.75 656.11 Z M 782.66 651.16 L 802.86 651.16 L 822.09 652.20 L 841.67 501.97 C 838.74 422.59 787.48 367.67 783.98 364.01 C 756.16 345.72 738.65 326.92 731.08 317.88 L 743.11 407.71 L 786.46 529.86 C 786.56 530.12 786.59 530.39 786.57 530.67 L 776.06 645.23 L 782.66 651.16 Z" fill="#6e6e96" fill-rule="nonzero" group-id="18" node-id="370" stroke="none" target-height="346.928" target-width="119.19299" target-x="726.267" target-y="309.179"></path></g><g node-id="756"><path d="M 797.27 532.82 L 788.45 532.82 C 787.39 532.82 786.54 531.97 786.54 530.92 C 786.54 529.87 787.39 529.02 788.45 529.02 L 797.27 529.02 C 798.32 529.02 799.17 529.87 799.17 530.92 C 799.17 531.97 798.32 532.82 797.27 532.82 Z" fill="#6e6e96" fill-rule="nonzero" group-id="19" node-id="375" stroke="none" target-height="3.8079834" target-width="12.63208" target-x="786.54" target-y="529.016"></path></g><g node-id="757"><path d="M 780.58 229.12 C 772.57 271.60 754.49 321.50 656.55 301.96 C 602.66 291.21 581.64 256.73 578.98 209.82 C 576.15 159.63 555.97 52.67 676.86 78.81 C 787.34 68.82 789.34 182.67 780.58 229.12 Z" fill="#7b7b9c" fill-rule="nonzero" group-id="20" node-id="380" stroke="none" target-height="268.831" target-width="233.367" target-x="555.97" target-y="52.674004"></path><path d="M 696.31 308.24 C 684.33 308.24 670.82 306.76 656.17 303.83 C 605.96 293.81 580.09 263.10 577.08 209.93 C 576.83 205.45 576.44 200.52 576.02 195.28 C 573.39 162.08 569.78 116.61 593.12 91.34 C 609.75 73.34 637.87 68.49 676.98 76.88 C 713.33 73.66 741.35 83.51 760.00 105.99 C 789.41 141.47 787.95 200.30 782.45 229.48 C 775.10 268.42 759.13 308.24 696.32 308.24 C 696.31 308.24 696.31 308.24 696.31 308.24 Z M 642.92 76.66 C 622.31 76.66 606.50 82.47 595.91 93.93 C 573.71 117.97 577.24 162.47 579.81 194.97 C 580.23 200.25 580.63 205.21 580.88 209.72 C 583.78 260.90 608.65 290.47 656.92 300.10 C 671.32 302.97 684.57 304.43 696.31 304.43 C 696.31 304.43 696.31 304.43 696.32 304.43 C 756.18 304.43 771.30 268.06 778.71 228.77 C 784.09 200.25 785.58 142.81 757.06 108.42 C 739.21 86.89 712.21 77.53 677.03 80.70 C 676.83 80.72 676.64 80.71 676.46 80.67 C 664.15 78.01 652.87 76.66 642.92 76.66 Z" fill="#6e6e96" fill-rule="nonzero" group-id="20" node-id="382" stroke="none" target-height="239.74799" target-width="219.63" target-x="569.777" target-y="68.488"></path></g><g node-id="758"><path d="M 748.47 278.21 C 748.47 278.21 725.53 231.15 743.94 200.00 C 756.54 178.70 740.59 156.57 729.25 144.69 C 727.28 143.20 722.02 136.73 719.47 136.53 C 611.29 128.19 623.59 115.89 593.38 155.57 C 550.91 211.36 576.95 311.82 623.31 340.23 C 654.71 359.50 707.65 346.91 755.60 270.19 C 762.02 259.92 767.39 249.82 770.90 239.71 C 768.54 251.48 748.47 278.21 748.47 278.21 Z" fill="#e3b8a8" fill-rule="nonzero" group-id="21" node-id="387" stroke="none" target-height="243.604" target-width="219.98407" target-x="550.911" target-y="115.895"></path><path d="M 652.49 350.14 C 641.43 350.14 631.27 347.36 622.31 341.86 C 598.93 327.53 579.99 295.04 572.88 257.06 C 565.46 217.43 572.38 180.02 591.87 154.42 L 594.08 151.50 C 608.54 132.46 613.41 126.05 630.48 126.05 C 637.60 126.05 647.05 127.16 660.15 128.70 C 674.25 130.35 693.56 132.62 719.61 134.63 C 721.89 134.81 724.49 137.29 727.91 140.78 C 728.93 141.81 729.88 142.78 730.39 143.16 C 741.93 155.21 758.90 178.44 745.58 200.97 C 730.50 226.49 744.36 263.78 748.88 274.44 C 752.36 269.62 759.79 259.03 764.65 249.91 C 766.39 246.20 767.89 242.56 769.09 239.09 C 769.42 238.14 770.42 237.60 771.39 237.87 C 772.36 238.13 772.96 239.10 772.76 240.08 C 772.19 242.96 770.61 246.84 768.06 251.62 C 765.22 257.65 761.67 264.06 757.21 271.20 C 714.28 339.89 673.17 350.14 652.49 350.14 Z M 630.48 129.86 C 615.30 129.86 611.45 134.93 597.12 153.81 L 594.90 156.72 C 576.06 181.47 569.40 217.78 576.63 256.36 C 583.54 293.31 601.81 324.83 624.30 338.61 C 632.65 343.73 642.14 346.33 652.49 346.33 C 683.87 346.33 717.95 322.17 747.16 279.60 C 747.00 279.44 746.86 279.26 746.76 279.05 C 745.80 277.09 723.59 230.70 742.30 199.03 C 754.35 178.66 738.43 157.06 727.87 146.00 C 727.36 145.65 726.40 144.68 725.20 143.45 C 723.77 142.00 720.44 138.60 719.31 138.43 C 693.20 136.41 673.84 134.14 659.71 132.48 C 646.74 130.96 637.38 129.86 630.48 129.86 Z" fill="#6e6e96" fill-rule="nonzero" group-id="21" node-id="389" stroke="none" target-height="224.09299" target-width="207.49896" target-x="565.458" target-y="126.049"></path></g><g node-id="759"><path d="M 758.14 260.52 C 750.93 272.99 742.94 280.78 752.98 287.00 C 762.99 293.23 776.98 288.16 784.17 275.70 C 791.40 263.23 789.11 248.07 779.09 241.83 C 769.06 235.62 765.36 248.05 758.14 260.52 Z" fill="#edc0af" fill-rule="nonzero" group-id="22" node-id="394" stroke="none" target-height="57.60901" target-width="48.462036" target-x="742.936" target-y="235.621"></path><path d="M 762.44 291.57 L 762.44 291.57 C 758.70 291.57 755.08 290.55 751.97 288.62 C 748.92 286.73 747.15 284.56 746.56 281.99 C 745.46 277.20 748.64 272.16 752.68 265.79 C 753.90 263.85 755.21 261.78 756.49 259.57 C 757.76 257.38 758.91 255.19 760.02 253.10 C 764.23 245.15 767.86 238.28 774.15 238.28 C 776.04 238.28 777.98 238.91 780.09 240.21 C 790.96 246.99 793.53 263.33 785.82 276.65 C 780.51 285.85 771.55 291.57 762.44 291.57 Z M 774.15 242.08 C 770.16 242.08 767.02 248.02 763.39 254.89 C 762.26 257.01 761.08 259.24 759.79 261.48 C 758.48 263.74 757.15 265.85 755.90 267.82 C 752.34 273.45 749.53 277.89 750.27 281.13 C 750.63 282.67 751.84 284.06 753.98 285.39 C 756.52 286.96 759.36 287.76 762.44 287.76 L 762.44 287.76 C 770.19 287.76 777.89 282.78 782.52 274.75 C 789.22 263.18 787.23 249.14 778.08 243.45 C 776.62 242.54 775.30 242.08 774.15 242.08 Z" fill="#6e6e96" fill-rule="nonzero" group-id="22" node-id="396" stroke="none" target-height="53.295013" target-width="48.07495" target-x="745.46" target-y="238.276"></path></g><g node-id="760"><path d="M 735.47 479.16 L 696.63 479.16 C 695.58 479.16 694.73 478.31 694.73 477.25 C 694.73 476.20 695.58 475.35 696.63 475.35 L 735.47 475.35 C 736.52 475.35 737.37 476.20 737.37 477.25 C 737.37 478.31 736.52 479.16 735.47 479.16 Z" fill="#6e6e96" fill-rule="nonzero" group-id="23" node-id="401" stroke="none" target-height="3.8099976" target-width="42.64392" target-x="694.727" target-y="475.349"></path></g><g node-id="761"><path d="M 576.91 206.56 C 576.91 206.56 581.82 153.19 630.28 153.19 C 678.75 153.19 702.05 153.19 702.05 153.19 C 702.05 153.19 725.36 162.39 725.36 189.38 C 725.36 216.37 704.02 243.46 719.23 271.58 C 719.23 271.58 695.92 314.51 643.16 314.51 C 590.41 314.51 576.91 256.85 576.91 206.56 Z" fill="#edc0af" fill-rule="nonzero" group-id="24" node-id="406" stroke="none" target-height="161.32501" target-width="148.443" target-x="576.912" target-y="153.19"></path></g><g node-id="762"><path d="M 486.10 615.28 L 564.65 394.27 C 564.65 394.27 600.12 476.69 626.55 517.05 L 623.60 531.65 C 623.60 531.65 569.56 460.50 569.56 443.33 L 506.91 617.70 L 486.10 615.28 Z" fill="#6e6e96" fill-opacity="0.25" fill-rule="nonzero" group-id="25" node-id="411" stroke="none" target-height="223.427" target-width="140.453" target-x="486.097" target-y="394.268"></path></g><g node-id="763"><path d="M 581.92 682.15 L 624.74 563.42 L 634.73 614.88 L 610.50 688.44 Z" fill="#6e6e96" fill-opacity="0.25" fill-rule="nonzero" group-id="26" node-id="416" stroke="none" target-height="125.0199" target-width="52.813965" target-x="581.919" target-y="563.416"></path></g><g node-id="764"><path d="M 741.25 408.18 L 630.28 572.76 C 630.28 572.76 639.40 615.14 661.52 696.70 C 661.52 696.70 624.76 582.35 623.59 546.43 L 717.78 399.69 L 707.65 376.41 L 734.50 357.85 L 741.25 408.18 Z" fill="#6e6e96" fill-opacity="0.25" fill-rule="nonzero" group-id="27" node-id="421" stroke="none" target-height="338.85" target-width="117.65796" target-x="623.588" target-y="357.848"></path></g><g node-id="765"><path d="M 629.72 503.46 C 629.72 503.46 609.99 405.29 619.86 388.12 L 646.00 361.98 L 636.30 351.03 L 601.46 375.88 C 601.46 375.86 601.76 468.90 629.72 503.46 Z" fill="#6e6e96" fill-opacity="0.15" fill-rule="nonzero" group-id="28" node-id="426" stroke="none" target-height="152.423" target-width="44.54297" target-x="601.455" target-y="351.034"></path></g><g node-id="766"><path d="M 634.58 373.40 L 667.87 406.70 L 679.21 384.63 L 664.80 383.18 L 646.00 361.97 Z" fill="#6e6e96" fill-opacity="0.15" fill-rule="nonzero" group-id="29" node-id="431" stroke="none" target-height="44.723022" target-width="44.63098" target-x="634.577" target-y="361.973"></path></g><g node-id="767"><path d="M 725.49 431.55 L 763.39 530.92 L 752.35 646.98 L 722.91 673.97 L 659.11 673.97 L 661.53 696.69 L 725.66 697.88 L 781.17 672.71 L 781.93 653.08 L 774.08 646.01 L 784.67 530.51 L 741.25 408.18 Z" fill="#6e6e96" fill-opacity="0.25" fill-rule="nonzero" group-id="30" node-id="436" stroke="none" target-height="289.705" target-width="125.55908" target-x="659.113" target-y="408.176"></path></g><g node-id="768"><path d="M 785.19 362.55 L 821.05 496.08 L 806.34 653.96 L 823.74 654.20 L 843.55 502.22 C 843.56 502.22 832.09 395.49 785.19 362.55 Z" fill="#6e6e96" fill-opacity="0.25" fill-rule="nonzero" group-id="31" node-id="441" stroke="none" target-height="291.65698" target-width="58.364075" target-x="785.19293" target-y="362.54504"></path></g><g node-id="769"><path d="M 644.39 654.33 L 647.80 720.41 L 660.32 805.60 L 659.38 950.37 L 629.67 958.12 L 629.67 713.23 L 579.38 713.23 L 543.96 700.14 L 538.16 667.85 L 610.50 688.44 L 637.03 618.76 Z" fill="#6e6e96" fill-opacity="0.25" fill-rule="nonzero" group-id="32" node-id="446" stroke="none" target-height="339.35504" target-width="122.159" target-x="538.159" target-y="618.764"></path></g><g node-id="770"><path d="M 659.38 799.23 L 671.38 721.82 L 727.82 721.82 L 748.67 715.68 L 721.68 831.00 L 721.68 955.83 L 745.24 950.68 L 754.33 837.20 L 781.17 672.71 L 725.66 697.88 L 661.53 696.69 L 655.43 682.56 L 647.80 720.41 Z" fill="#6e6e96" fill-opacity="0.25" fill-rule="nonzero" group-id="33" node-id="451" stroke="none" target-height="283.123" target-width="133.37012" target-x="647.798" target-y="672.709"></path></g><g node-id="771"><path d="M 717.70 760.21 L 901.81 720.85 L 899.89 823.69 L 744.36 889.38 Z" fill="#c2a386" fill-rule="nonzero" group-id="34" node-id="456" stroke="none" target-height="168.53394" target-width="184.11102" target-x="717.69995" target-y="720.847"></path><path d="M 744.36 891.28 C 744.06 891.28 743.75 891.21 743.48 891.07 C 742.97 890.80 742.61 890.33 742.50 889.77 L 715.84 760.60 C 715.62 759.57 716.28 758.57 717.30 758.35 L 901.41 718.98 C 901.97 718.87 902.57 719.01 903.02 719.38 C 903.47 719.75 903.72 720.30 903.71 720.88 L 901.79 823.73 C 901.78 824.48 901.32 825.15 900.63 825.45 L 745.10 891.14 C 744.87 891.24 744.62 891.28 744.36 891.28 Z M 719.95 761.67 L 745.76 886.72 L 898.01 822.42 L 899.86 723.21 L 719.95 761.67 Z" fill="#6e6e96" fill-rule="nonzero" group-id="34" node-id="458" stroke="none" target-height="172.41315" target-width="188.09998" target-x="715.624" target-y="718.8709"></path></g><g node-id="772"><path d="M 717.70 760.21 L 744.36 775.45 L 901.81 720.85 L 880.55 705.33 Z" fill="#d6b494" fill-rule="nonzero" group-id="35" node-id="463" stroke="none" target-height="70.11896" target-width="184.11102" target-x="717.69995" target-y="705.327"></path><path d="M 744.36 777.35 C 744.04 777.35 743.71 777.26 743.42 777.10 L 716.75 761.87 C 716.11 761.49 715.73 760.77 715.80 760.02 C 715.88 759.28 716.38 758.64 717.09 758.41 L 879.94 703.52 C 880.53 703.32 881.18 703.43 881.68 703.79 L 902.93 719.31 C 903.50 719.73 903.80 720.43 903.69 721.13 C 903.59 721.83 903.10 722.41 902.43 722.65 L 744.99 777.25 C 744.78 777.32 744.58 777.35 744.36 777.35 Z M 722.33 760.66 L 744.56 773.36 L 897.75 720.24 L 880.23 707.45 L 722.33 760.66 Z" fill="#6e6e96" fill-rule="nonzero" group-id="35" node-id="465" stroke="none" target-height="74.028015" target-width="188.06604" target-x="715.733" target-y="703.323"></path></g><g node-id="773"><path d="M 744.24 775.40 L 744.53 889.35 L 717.83 871.98 L 717.54 760.25 Z" fill="#d6b494" fill-rule="nonzero" group-id="36" node-id="470" stroke="none" target-height="129.1051" target-width="26.998901" target-x="717.5361" target-y="760.246"></path><path d="M 744.61 891.25 C 744.59 891.25 744.56 891.25 744.53 891.25 C 744.17 891.25 743.81 891.15 743.50 890.95 L 716.79 873.58 C 716.25 873.23 715.92 872.63 715.92 871.99 L 715.63 760.25 C 715.63 759.57 715.99 758.94 716.58 758.60 C 717.17 758.26 717.88 758.25 718.48 758.59 L 745.18 773.75 C 745.77 774.08 746.14 774.72 746.14 775.40 L 746.44 888.81 C 746.49 888.98 746.51 889.16 746.51 889.35 C 746.51 890.40 745.66 891.25 744.61 891.25 Z M 719.73 870.95 L 742.62 885.84 L 742.34 776.52 L 719.45 763.52 L 719.73 870.95 Z" fill="#6e6e96" fill-rule="nonzero" group-id="36" node-id="472" stroke="none" target-height="133.00201" target-width="30.88092" target-x="715.633" target-y="758.253"></path></g><g node-id="774"><path d="M 784.73 750.45 C 783.81 750.45 783.00 749.78 782.85 748.85 C 782.79 748.44 776.66 707.75 806.04 685.24 C 812.68 680.14 818.90 678.76 824.52 681.12 C 840.57 687.87 845.07 723.65 845.25 725.17 C 845.38 726.21 844.64 727.16 843.60 727.28 C 842.56 727.43 841.60 726.67 841.47 725.63 C 841.43 725.27 837.06 690.53 823.03 684.63 C 818.77 682.83 813.82 684.06 808.35 688.26 C 780.80 709.37 786.55 747.86 786.62 748.24 C 786.78 749.28 786.07 750.26 785.03 750.42 C 784.93 750.44 784.83 750.45 784.73 750.45 Z" fill="#6e6e96" fill-rule="nonzero" group-id="37" node-id="477" stroke="none" target-height="71.685" target-width="68.71997" target-x="776.66003" target-y="678.763"></path></g><g node-id="775"><path d="M 781.93 653.08 L 783.36 674.95 C 783.36 674.95 761.88 680.10 768.84 698.99 C 768.84 698.99 776.54 715.36 782.20 703.14 C 790.54 685.13 793.39 697.19 795.14 706.23 C 797.51 718.44 830.62 709.93 830.62 688.34 C 830.62 666.74 811.98 677.34 815.44 658.07 C 816.15 654.12 823.75 654.24 823.75 654.24 L 781.93 653.08 Z" fill="#e3b8a8" fill-rule="nonzero" group-id="38" node-id="482" stroke="none" target-height="65.36102" target-width="68.742065" target-x="761.8779" target-y="653.078"></path><path d="M 804.42 713.74 C 798.31 713.74 794.14 711.07 793.27 706.60 C 791.26 696.25 789.81 695.72 789.54 695.72 C 789.53 695.72 787.69 695.82 783.93 703.94 C 782.20 707.68 779.98 709.58 777.33 709.58 C 771.99 709.58 767.88 701.44 767.12 699.80 C 764.91 693.85 765.05 688.62 767.45 684.12 C 770.93 677.62 778.17 674.61 781.36 673.55 L 780.03 653.21 C 779.99 652.67 780.18 652.15 780.55 651.76 C 780.93 651.37 781.45 651.17 781.98 651.17 L 823.80 652.33 C 824.85 652.36 825.67 653.23 825.66 654.27 C 825.63 655.31 824.79 656.14 823.75 656.14 C 823.74 656.14 823.73 656.14 823.73 656.14 L 823.73 656.14 C 821.21 656.14 817.59 656.84 817.31 658.41 C 815.82 666.69 818.53 668.27 822.64 670.66 C 827.04 673.22 832.52 676.41 832.52 688.34 C 832.52 704.08 816.16 713.74 804.42 713.74 Z M 789.54 691.91 C 793.94 691.91 795.58 698.52 797.01 705.87 C 797.72 709.54 802.43 709.94 804.42 709.94 C 809.58 709.94 815.67 707.71 820.32 704.14 C 824.15 701.20 828.72 696.06 828.72 688.34 C 828.72 678.60 824.84 676.34 820.73 673.95 C 816.45 671.47 811.60 668.64 813.56 657.73 C 813.69 657.02 813.94 656.41 814.29 655.88 L 783.97 655.04 L 785.26 674.82 C 785.32 675.75 784.71 676.58 783.81 676.80 C 783.72 676.82 774.42 679.14 770.80 685.94 C 768.94 689.43 768.88 693.60 770.63 698.33 C 772.01 701.24 775.16 705.77 777.33 705.77 C 778.68 705.77 779.88 703.62 780.47 702.34 C 783.81 695.13 786.61 691.91 789.54 691.91 Z" fill="#6e6e96" fill-rule="nonzero" group-id="38" node-id="484" stroke="none" target-height="62.576904" target-width="67.61194" target-x="764.91205" target-y="651.168"></path></g><g node-id="776"><path d="M 744.33 810.36 C 743.55 810.36 742.82 809.88 742.54 809.11 C 742.18 808.12 742.68 807.03 743.68 806.67 L 900.59 749.49 C 901.58 749.12 902.67 749.64 903.03 750.63 C 903.39 751.61 902.88 752.71 901.89 753.07 L 744.98 810.24 C 744.76 810.32 744.54 810.36 744.33 810.36 Z" fill="#6e6e96" fill-rule="nonzero" group-id="39" node-id="489" stroke="none" target-height="61.23401" target-width="161.216" target-x="742.177" target-y="749.125"></path></g><g node-id="777"><path d="M 877.68 785.60 C 876.63 785.60 875.78 784.75 875.78 783.70 L 875.78 746.56 C 875.78 745.50 876.63 744.65 877.68 744.65 C 878.74 744.65 879.59 745.51 879.59 746.56 L 879.59 783.70 C 879.59 784.75 878.73 785.60 877.68 785.60 Z" fill="#6e6e96" fill-rule="nonzero" group-id="40" node-id="494" stroke="none" target-height="40.947937" target-width="3.8099365" target-x="875.7781" target-y="744.65405"></path></g><g node-id="778"><path d="M 771.98 822.74 C 770.93 822.74 770.08 821.89 770.08 820.84 L 770.08 783.70 C 770.08 782.64 770.93 781.79 771.98 781.79 C 773.03 781.79 773.88 782.64 773.88 783.70 L 773.88 820.84 C 773.88 821.89 773.03 822.74 771.98 822.74 Z" fill="#6e6e96" fill-rule="nonzero" group-id="41" node-id="499" stroke="none" target-height="40.948975" target-width="3.8099365" target-x="770.075" target-y="781.791"></path></g><g node-id="779"><path d="M 744.33 820.25 C 743.55 820.25 742.82 819.77 742.54 819.00 C 742.18 818.02 742.68 816.92 743.68 816.56 L 900.59 759.39 C 901.58 759.03 902.67 759.54 903.03 760.53 C 903.39 761.51 902.88 762.61 901.89 762.97 L 744.98 820.14 C 744.76 820.22 744.54 820.25 744.33 820.25 Z" fill="#6e6e96" fill-opacity="0.15" fill-rule="nonzero" group-id="42" node-id="504" stroke="none" target-height="61.223083" target-width="161.216" target-x="742.177" target-y="759.031"></path></g><g node-id="780"><path d="M 744.51 877.97 C 743.76 877.97 743.05 877.53 742.75 876.80 C 742.34 875.83 742.80 874.71 743.77 874.31 L 899.39 809.53 C 900.37 809.14 901.47 809.58 901.88 810.55 C 902.28 811.52 901.82 812.64 900.85 813.05 L 745.24 877.83 C 745.00 877.92 744.75 877.97 744.51 877.97 Z" fill="#6e6e96" fill-opacity="0.15" fill-rule="nonzero" group-id="43" node-id="509" stroke="none" target-height="68.8349" target-width="159.9361" target-x="742.344" target-y="809.137"></path></g><g node-id="781"><path d="M 608.19 228.52 C 606.08 228.52 604.38 226.82 604.38 224.71 L 604.38 203.76 C 604.38 201.66 606.08 199.96 608.19 199.96 C 610.29 199.96 612.00 201.66 612.00 203.76 L 612.00 224.71 C 612.00 226.82 610.29 228.52 608.19 228.52 Z" fill="#6e6e96" fill-rule="nonzero" group-id="44" node-id="514" stroke="none" target-height="28.569016" target-width="7.6189575" target-x="604.379" target-y="199.955"></path></g><g node-id="782"><path d="M 666.62 229.14 C 664.51 229.14 662.81 227.43 662.81 225.33 L 662.81 203.15 C 662.81 201.04 664.51 199.34 666.62 199.34 C 668.72 199.34 670.43 201.04 670.43 203.15 L 670.43 225.33 C 670.43 227.43 668.73 229.14 666.62 229.14 Z" fill="#6e6e96" fill-rule="nonzero" group-id="45" node-id="519" stroke="none" target-height="29.800003" target-width="7.6190186" target-x="662.81" target-y="199.338"></path></g><g node-id="783"><path d="M 638.74 289.48 C 629.27 289.48 619.80 285.88 612.59 278.68 C 611.10 277.19 611.10 274.78 612.58 273.29 C 614.07 271.80 616.48 271.81 617.97 273.29 C 629.42 284.72 648.06 284.72 659.51 273.29 C 661.00 271.81 663.41 271.80 664.90 273.29 C 666.38 274.78 666.38 277.19 664.89 278.68 C 657.68 285.88 648.21 289.48 638.74 289.48 Z" fill="#6e6e96" fill-rule="nonzero" group-id="46" node-id="524" stroke="none" target-height="17.679016" target-width="55.283997" target-x="611.098" target-y="271.801"></path></g><g node-id="784"><g node-id="822"><path d="M 491.33 489.45 L 470.83 646.75 L 449.21 645.58 L 427.54 645.58 L 419.42 638.27 L 430.39 518.72 L 385.44 392.11 L 372.01 291.82 C 372.01 291.82 390.98 318.66 430.93 344.90 C 430.93 344.89 488.18 402.98 491.33 489.45 Z" fill="#8d8db3" fill-rule="nonzero" group-id="47,85" node-id="531" stroke="none" target-height="354.931" target-width="119.321014" target-x="372.013" target-y="291.824"></path><path d="M 470.83 648.66 C 470.80 648.66 470.76 648.66 470.73 648.66 L 449.11 647.48 L 427.54 647.49 C 427.07 647.49 426.62 647.31 426.27 647.00 L 418.15 639.68 C 417.70 639.28 417.47 638.69 417.53 638.09 L 428.46 518.96 L 383.65 392.75 C 383.61 392.63 383.57 392.50 383.56 392.37 L 370.13 292.08 C 370.01 291.21 370.50 290.37 371.32 290.05 C 372.13 289.73 373.06 290.00 373.57 290.73 C 373.76 290.99 392.83 317.60 431.98 343.31 L 431.83 343.54 C 439.56 349.67 490.25 407.46 493.24 489.38 L 472.72 647.00 C 472.59 647.95 471.78 648.66 470.83 648.66 Z M 428.27 643.68 L 449.21 643.68 L 469.17 644.76 L 489.45 489.20 C 486.40 406.56 432.75 349.54 429.71 346.38 C 400.73 327.31 382.58 307.73 374.82 298.45 L 387.31 391.66 L 432.18 518.09 C 432.28 518.35 432.31 518.62 432.29 518.90 L 421.41 637.49 L 428.27 643.68 Z" fill="#6e6e96" fill-rule="nonzero" group-id="47,85" node-id="533" stroke="none" target-height="358.92996" target-width="123.22604" target-x="370.012" target-y="289.73"></path></g><g node-id="823"><path d="M 459.88 646.74 L 425.70 693.18 L 427.54 645.58 Z" fill="#e3b8a8" fill-rule="nonzero" group-id="47,86" node-id="538" stroke="none" target-height="47.59497" target-width="34.17398" target-x="425.704" target-y="645.583"></path><path d="M 425.70 695.08 C 425.49 695.08 425.28 695.05 425.07 694.98 C 424.28 694.70 423.77 693.94 423.80 693.11 L 425.64 645.51 C 425.68 644.46 426.59 643.69 427.61 643.68 L 459.95 644.84 C 460.65 644.87 461.29 645.28 461.59 645.91 C 461.90 646.55 461.83 647.31 461.41 647.87 L 427.24 694.31 C 426.87 694.80 426.30 695.08 425.70 695.08 Z M 429.37 647.55 L 427.85 687.06 L 456.21 648.52 L 429.37 647.55 Z" fill="#6e6e96" fill-rule="nonzero" group-id="47,86" node-id="540" stroke="none" target-height="51.40399" target-width="38.131958" target-x="423.76804" target-y="643.679"></path></g><path d="M 430.93 344.89 L 468.04 483.08 L 452.81 646.48 L 470.83 646.73 L 491.33 489.42 C 491.33 489.45 479.46 378.98 430.93 344.89 Z" fill="#6e6e96" fill-opacity="0.25" fill-rule="nonzero" group-id="47,87" node-id="545" stroke="none" target-height="301.83603" target-width="60.404022" target-x="430.93" target-y="344.892"></path></g><g node-id="785"><g node-id="825"><path d="M 431.75 993.16 C 431.75 993.16 426.08 960.76 388.11 976.41 C 364.70 986.04 362.83 954.07 362.83 954.07 L 338.33 954.07 L 338.33 1002.75 L 364.36 1002.75 L 364.36 995.55 L 381.98 1003.25 L 428.69 1003.48 L 428.69 1003.49 C 433.19 1003.48 431.75 993.16 431.75 993.16 Z" fill="#7b7b9c" fill-rule="nonzero" group-id="48,88" node-id="552" stroke="none" target-height="49.424988" target-width="94.85803" target-x="338.33" target-y="954.068"></path><path d="M 428.69 1005.40 C 428.60 1005.40 428.52 1005.39 428.44 1005.38 L 381.97 1005.15 C 381.71 1005.15 381.45 1005.10 381.21 1004.99 L 366.27 998.46 L 366.27 1002.75 C 366.27 1003.80 365.42 1004.65 364.36 1004.65 L 338.33 1004.65 C 337.28 1004.65 336.43 1003.80 336.43 1002.75 L 336.43 954.07 C 336.43 953.01 337.28 952.16 338.33 952.16 L 362.83 952.16 C 363.84 952.16 364.67 952.95 364.73 953.96 C 364.74 954.18 366.22 976.32 379.98 976.32 L 379.98 976.32 C 382.21 976.32 384.70 975.75 387.38 974.65 C 394.49 971.72 401.02 970.24 406.80 970.24 C 429.41 970.24 433.59 992.60 433.63 992.83 C 433.82 994.20 434.60 1000.88 432.00 1003.87 C 431.14 1004.87 430.00 1005.39 428.69 1005.40 C 428.69 1005.40 428.69 1005.40 428.69 1005.40 Z M 382.38 1001.35 L 428.69 1001.57 C 428.73 1001.57 428.77 1001.57 428.81 1001.58 C 428.93 1001.56 429.02 1001.50 429.12 1001.38 C 430.21 1000.13 430.21 995.89 429.87 993.42 C 429.73 992.70 426.17 974.05 406.80 974.05 C 401.52 974.05 395.48 975.44 388.83 978.17 C 385.69 979.47 382.71 980.13 379.98 980.13 L 379.98 980.13 C 365.13 980.13 361.79 961.89 361.09 955.97 L 340.23 955.97 L 340.23 1000.85 L 362.46 1000.85 L 362.46 995.55 C 362.46 994.91 362.78 994.31 363.32 993.96 C 363.86 993.61 364.54 993.55 365.12 993.81 L 382.38 1001.35 Z" fill="#6e6e96" fill-rule="nonzero" group-id="48,88" node-id="554" stroke="none" target-height="53.234985" target-width="98.173035" target-x="336.425" target-y="952.163"></path></g><g node-id="826"><path d="M 192.34 993.16 C 192.34 993.16 199.42 954.47 235.99 976.41 C 257.81 989.50 261.26 954.07 261.26 954.07 L 285.77 954.07 L 285.77 1002.75 L 259.73 1002.75 L 259.73 995.55 L 242.12 1003.25 L 195.40 1003.48 L 195.40 1003.49 C 187.75 1003.48 192.34 993.16 192.34 993.16 Z" fill="#7b7b9c" fill-rule="nonzero" group-id="48,89" node-id="559" stroke="none" target-height="49.424988" target-width="98.020004" target-x="187.748" target-y="954.068"></path><path d="M 195.40 1005.40 C 195.40 1005.40 195.40 1005.40 195.40 1005.40 C 192.34 1005.39 190.82 1004.02 190.07 1002.87 C 187.84 999.43 189.98 993.85 190.51 992.58 C 191.05 990.04 196.36 967.77 215.82 967.77 C 222.10 967.77 229.22 970.13 236.97 974.78 C 239.88 976.52 242.55 977.41 244.91 977.41 C 256.93 977.41 259.34 954.12 259.36 953.88 C 259.45 952.91 260.28 952.16 261.26 952.16 L 285.77 952.16 C 286.82 952.16 287.67 953.02 287.67 954.07 L 287.67 1002.75 C 287.67 1003.80 286.82 1004.65 285.77 1004.65 L 259.73 1004.65 C 258.68 1004.65 257.82 1003.80 257.82 1002.75 L 257.82 998.46 L 242.88 1004.99 C 242.64 1005.10 242.38 1005.15 242.13 1005.15 L 195.65 1005.38 C 195.56 1005.40 195.48 1005.40 195.40 1005.40 Z M 215.82 971.58 C 198.47 971.58 194.38 992.61 194.22 993.50 C 194.19 993.65 194.14 993.79 194.08 993.93 C 193.39 995.51 192.27 999.26 193.27 1000.80 C 193.39 1000.99 193.75 1001.53 195.20 1001.59 C 195.26 1001.58 195.33 1001.57 195.39 1001.57 L 241.71 1001.35 L 258.97 993.81 C 259.56 993.55 260.24 993.61 260.77 993.96 C 261.31 994.31 261.63 994.91 261.63 995.55 L 261.63 1000.84 L 283.86 1000.84 L 283.86 955.97 L 262.94 955.97 C 262.07 961.96 258.24 981.22 244.91 981.22 C 241.85 981.22 238.52 980.15 235.01 978.05 C 227.86 973.76 221.40 971.58 215.82 971.58 Z" fill="#6e6e96" fill-rule="nonzero" group-id="48,89" node-id="561" stroke="none" target-height="53.234985" target-width="99.83099" target-x="187.841" target-y="952.163"></path></g></g><g node-id="786"><path d="M 316.30 575.41 L 316.30 953.25 C 326.77 962.38 348.45 961.52 359.28 961.04 C 391.52 959.64 395.52 948.70 395.52 948.70 L 409.53 840.13 L 445.95 637.62 L 316.30 575.41 Z" fill="#8d8db3" fill-rule="nonzero" group-id="49" node-id="567" stroke="none" target-height="386.97003" target-width="129.651" target-x="316.301" target-y="575.409"></path><path d="M 349.26 963.21 C 332.82 963.21 321.63 960.42 315.05 954.69 C 314.63 954.33 314.40 953.80 314.40 953.25 L 314.40 575.41 C 314.40 574.75 314.73 574.14 315.29 573.80 C 315.84 573.45 316.54 573.41 317.13 573.69 L 446.78 635.90 C 447.55 636.28 447.98 637.12 447.83 637.96 L 411.40 840.47 L 397.41 948.95 C 397.39 949.09 397.36 949.22 397.31 949.36 C 396.85 950.60 391.94 961.53 359.37 962.95 C 356.58 963.06 353.09 963.21 349.26 963.21 Z M 318.21 952.36 C 324.11 957.03 334.55 959.40 349.26 959.40 C 353.03 959.40 356.46 959.26 359.20 959.13 C 387.22 957.92 392.98 949.40 393.67 948.15 L 407.64 839.89 L 443.82 638.71 L 318.21 578.44 L 318.21 952.36 Z" fill="#6e6e96" fill-rule="nonzero" group-id="49" node-id="569" stroke="none" target-height="389.80096" target-width="133.581" target-x="314.397" target-y="573.411"></path></g><g node-id="787"><path d="M 328.29 649.73 L 185.41 666.47 L 217.63 830.98 L 227.43 953.59 C 270.87 968.23 293.26 953.59 293.26 953.59 L 328.29 715.28 L 328.29 649.73 L 328.29 649.73 Z" fill="#8d8db3" fill-rule="nonzero" group-id="50" node-id="574" stroke="none" target-height="318.50598" target-width="142.88199" target-x="185.406" target-y="649.728"></path><path d="M 263.81 962.00 C 263.80 962.00 263.81 962.00 263.80 962.00 C 252.27 962.00 239.83 959.78 226.83 955.39 C 226.10 955.15 225.60 954.50 225.54 953.74 L 215.73 831.13 L 183.54 666.84 C 183.44 666.32 183.56 665.78 183.87 665.35 C 184.18 664.92 184.66 664.64 185.19 664.58 L 328.07 647.84 C 328.61 647.78 329.15 647.95 329.56 648.30 C 329.96 648.67 330.19 649.19 330.19 649.73 L 330.19 715.28 L 295.15 953.87 C 295.07 954.40 294.76 954.88 294.31 955.18 C 293.88 955.46 283.65 962.00 263.81 962.00 Z M 229.23 952.18 C 241.41 956.17 253.04 958.19 263.80 958.19 C 279.57 958.19 288.96 953.78 291.51 952.40 L 326.40 715.00 L 326.38 651.87 L 187.67 668.12 L 219.50 830.61 L 229.23 952.18 Z" fill="#6e6e96" fill-rule="nonzero" group-id="50" node-id="576" stroke="none" target-height="314.22107" target-width="146.758" target-x="183.435" target-y="647.782"></path></g><g node-id="788"><path d="M 399.40 396.74 L 366.22 278.41 L 330.33 571.17 L 366.89 682.18 L 427.84 668.76 L 464.41 648.03 L 459.83 617.53 Z" fill="#8d8db3" fill-rule="nonzero" group-id="51" node-id="581" stroke="none" target-height="403.769" target-width="134.07901" target-x="330.327" target-y="278.41"></path><path d="M 366.89 684.08 C 366.09 684.08 365.35 683.57 365.08 682.77 L 328.52 571.77 C 328.43 571.50 328.40 571.22 328.44 570.94 L 364.33 278.18 C 364.44 277.28 365.17 276.58 366.07 276.51 C 367.00 276.46 367.80 277.02 368.05 277.90 L 401.23 396.22 L 461.66 617.03 L 466.29 647.75 C 466.41 648.53 466.03 649.30 465.35 649.69 L 428.78 670.42 C 428.62 670.51 428.44 670.58 428.25 670.62 L 367.31 684.04 C 367.17 684.07 367.03 684.08 366.89 684.08 Z M 332.27 570.98 L 368.17 679.95 L 427.15 666.97 L 462.33 647.02 L 457.94 617.81 L 397.56 397.24 L 366.95 288.08 L 332.27 570.98 Z" fill="#6e6e96" fill-rule="nonzero" group-id="51" node-id="583" stroke="none" target-height="407.622" target-width="138.00598" target-x="328.402" target-y="276.461"></path></g><g node-id="789"><path d="M 350.65 510.18 C 310.01 358.92 246.30 258.80 246.30 258.80 C 261.40 340.01 152.20 356.97 152.16 422.15 L 185.41 662.67 L 247.71 691.95 L 314.08 690.75 C 368.25 549.22 350.65 510.18 350.65 510.18 Z" fill="#8d8db3" fill-rule="nonzero" group-id="52" node-id="588" stroke="none" target-height="433.14798" target-width="216.094" target-x="152.16" target-y="258.803"></path><path d="M 247.71 693.85 C 247.43 693.85 247.15 693.79 246.90 693.67 L 184.60 664.39 C 184.02 664.12 183.61 663.57 183.53 662.93 L 150.28 422.41 C 150.28 391.71 172.77 372.06 196.58 351.26 C 224.06 327.26 252.48 302.44 244.43 259.15 C 244.26 258.25 244.76 257.37 245.61 257.03 C 246.45 256.70 247.42 257.01 247.91 257.78 C 248.55 258.78 312.24 359.87 352.49 509.69 C 353.12 511.02 369.70 550.77 315.86 691.42 C 315.58 692.15 314.89 692.63 314.11 692.65 L 247.75 693.85 C 247.73 693.85 247.72 693.85 247.71 693.85 Z M 187.15 661.39 L 248.12 690.04 L 312.76 688.86 C 365.24 551.29 349.08 511.34 348.91 510.95 C 315.11 385.20 264.88 294.02 249.40 267.64 C 252.56 307.43 225.41 331.14 199.09 354.13 C 175.94 374.35 154.08 393.44 154.06 422.15 L 187.15 661.39 Z" fill="#6e6e96" fill-rule="nonzero" group-id="52" node-id="590" stroke="none" target-height="437.15692" target-width="219.42502" target-x="150.275" target-y="256.698"></path></g><g node-id="790"><path d="M 376.84 284.85 L 245.81 292.26 C 245.81 292.26 183.77 201.56 245.81 292.26 C 307.84 382.97 347.41 497.63 347.41 497.63 C 399.39 365.69 376.84 284.85 376.84 284.85" fill="#ffffff" fill-rule="nonzero" group-id="53" node-id="595" stroke="none" target-height="296.07294" target-width="215.62201" target-x="183.767" target-y="201.559"></path><path d="M 347.41 499.54 C 347.39 499.54 347.38 499.54 347.37 499.54 C 346.57 499.52 345.87 499.01 345.61 498.25 C 345.21 497.11 305.41 382.79 244.24 293.34 C 244.23 293.34 244.23 293.34 244.23 293.33 C 244.23 293.33 244.21 293.30 244.19 293.28 L 244.17 293.24 C 244.16 293.24 244.16 293.24 244.16 293.24 C 244.16 293.23 244.16 293.22 244.15 293.21 L 224.30 264.20 C 223.30 262.74 222.43 261.45 221.65 260.32 C 218.76 256.09 216.75 253.16 216.67 253.04 L 216.81 252.94 C 216.18 251.76 216.31 251.51 216.55 251.06 C 216.88 250.44 217.53 250.04 218.23 250.04 C 218.53 250.04 218.73 250.04 219.57 251.05 L 219.81 250.88 C 219.90 251.01 222.07 254.18 227.45 262.05 L 239.38 279.50 C 241.60 282.73 244.05 286.32 246.77 290.30 L 376.73 282.95 C 377.65 282.92 378.44 283.48 378.68 284.34 C 378.90 285.15 400.80 367.31 349.18 498.33 C 348.89 499.06 348.19 499.54 347.41 499.54 Z M 249.27 293.97 C 302.55 372.87 339.29 469.68 347.48 492.19 C 392.57 374.74 377.98 298.26 375.37 286.84 L 249.27 293.97 Z" fill="#6e6e96" fill-rule="nonzero" group-id="53" node-id="597" stroke="none" target-height="249.491" target-width="184.61903" target-x="216.179" target-y="250.044"></path></g><g node-id="791"><path d="M 378.95 357.70 C 356.13 348.18 336.00 329.28 336.00 329.28 L 369.00 294.90 C 372.30 322.15 380.03 318.65 378.95 357.70 Z" fill="#ffffff" fill-rule="nonzero" group-id="54" node-id="602" stroke="none" target-height="62.79901" target-width="44.032013" target-x="335.999" target-y="294.9"></path><path d="M 378.95 359.60 C 378.70 359.60 378.46 359.56 378.22 359.46 C 355.34 349.92 335.53 331.45 334.69 330.67 C 334.32 330.32 334.11 329.84 334.09 329.33 C 334.08 328.82 334.27 328.33 334.62 327.96 L 367.63 293.58 C 368.14 293.05 368.91 292.86 369.60 293.09 C 370.30 293.33 370.80 293.94 370.89 294.67 C 372.15 305.10 374.06 310.89 375.90 316.49 C 378.79 325.28 381.52 333.58 380.86 357.75 C 380.84 358.38 380.51 358.96 379.99 359.30 C 379.68 359.50 379.32 359.60 378.95 359.60 Z M 338.73 329.18 C 343.47 333.38 359.33 346.79 377.12 354.82 C 377.49 333.51 375.07 326.15 372.28 317.68 C 370.62 312.65 368.92 307.46 367.64 299.06 L 338.73 329.18 Z" fill="#6e6e96" fill-rule="nonzero" group-id="54" node-id="604" stroke="none" target-height="66.746" target-width="47.444" target-x="334.081" target-y="292.857"></path></g><g node-id="792"><path d="M 310.69 366.24 L 343.46 329.28 C 298.36 334.42 245.00 291.83 245.00 291.83 C 257.19 344.89 310.69 366.24 310.69 366.24 Z" fill="#ffffff" fill-rule="nonzero" group-id="55" node-id="609" stroke="none" target-height="74.41101" target-width="98.46002" target-x="245.00299" target-y="291.828"></path><path d="M 310.69 368.14 C 310.19 368.14 255.71 346.93 243.15 292.25 C 242.96 291.46 243.30 290.65 243.99 290.21 C 244.67 289.78 245.56 289.83 246.19 290.34 C 246.66 290.71 293.64 327.80 335.69 327.80 C 335.69 327.80 335.70 327.80 335.70 327.80 C 338.28 327.80 340.82 327.66 343.25 327.39 C 344.04 327.28 344.79 327.70 345.15 328.40 C 345.52 329.10 345.41 329.95 344.89 330.54 L 312.11 367.50 C 311.75 367.91 311.24 368.14 310.69 368.14 Z M 248.23 296.66 C 261.01 340.15 302.53 360.52 310.18 363.94 L 338.91 331.54 C 337.85 331.59 336.78 331.61 335.70 331.61 C 335.70 331.61 335.69 331.61 335.69 331.61 C 299.48 331.61 261.09 306.03 248.23 296.66 Z" fill="#6e6e96" fill-rule="nonzero" group-id="55" node-id="611" stroke="none" target-height="78.36102" target-width="102.553024" target-x="242.964" target-y="289.783"></path></g><g node-id="793"><path d="M 331.82 646.89 L 328.29 715.26 L 315.33 803.44 L 316.30 953.26 L 347.06 961.28 L 347.06 707.84 L 399.11 707.84 L 435.75 694.29 L 441.77 660.87 L 366.89 682.18 L 339.44 610.07 Z" fill="#6e6e96" fill-opacity="0.25" fill-rule="nonzero" group-id="56" node-id="616" stroke="none" target-height="351.21497" target-width="126.43802" target-x="315.331" target-y="610.07"></path></g><g node-id="794"><path d="M 344.15 513.60 C 379.09 466.55 408.20 373.55 408.20 373.55 L 396.98 352.55 L 381.27 332.05 C 381.22 399.06 355.13 476.24 342.49 509.71 L 344.15 513.60 Z" fill="#8d8db3" fill-rule="nonzero" group-id="57" node-id="621" stroke="none" target-height="181.55301" target-width="65.707" target-x="342.489" target-y="332.051"></path><path d="M 344.15 515.51 C 344.08 515.51 344.00 515.50 343.93 515.49 C 343.25 515.42 342.67 514.98 342.40 514.35 L 340.74 510.46 C 340.54 510.00 340.53 509.50 340.71 509.03 C 352.31 478.30 379.32 399.53 379.36 332.05 C 379.36 331.23 379.88 330.51 380.65 330.25 C 381.43 329.99 382.28 330.24 382.78 330.89 L 398.50 351.39 L 409.88 372.65 C 410.12 373.10 410.17 373.63 410.01 374.11 C 409.72 375.05 380.40 467.96 345.68 514.74 C 345.32 515.23 344.75 515.51 344.15 515.51 Z M 344.54 509.66 L 344.58 509.76 C 376.42 465.03 403.32 382.53 406.14 373.73 L 395.30 353.45 L 383.11 337.58 C 381.69 403.87 356.04 479.10 344.54 509.66 Z" fill="#6e6e96" fill-rule="nonzero" group-id="57" node-id="623" stroke="none" target-height="185.51697" target-width="69.63101" target-x="340.534" target-y="329.992"></path></g><g node-id="795"><path d="M 295.78 367.75 L 266.34 359.23 L 245.01 340.01 L 245.01 291.83 C 265.66 310.43 295.78 367.75 295.78 367.75 Z" fill="#8d8db3" fill-rule="nonzero" group-id="58" node-id="628" stroke="none" target-height="75.92502" target-width="50.77597" target-x="245.00702" target-y="291.828"></path><path d="M 295.78 369.66 C 295.61 369.66 295.43 369.63 295.25 369.58 L 265.81 361.06 C 265.53 360.98 265.28 360.83 265.06 360.64 L 243.73 341.43 C 243.33 341.07 243.10 340.55 243.10 340.01 L 243.10 291.83 C 243.10 291.07 243.55 290.39 244.23 290.09 C 244.92 289.78 245.73 289.91 246.28 290.41 C 266.25 308.40 294.27 360.82 297.25 366.45 C 297.57 366.79 297.76 367.25 297.76 367.75 C 297.76 368.82 296.86 369.62 295.82 369.66 C 295.81 369.66 295.80 369.66 295.78 369.66 Z M 267.29 357.52 L 291.96 364.66 C 285.18 352.19 263.61 313.68 246.91 296.33 L 246.91 339.17 L 267.29 357.52 Z" fill="#6e6e96" fill-rule="nonzero" group-id="58" node-id="630" stroke="none" target-height="79.87698" target-width="54.660995" target-x="243.10301" target-y="289.781"></path></g><g node-id="796"><path d="M 266.34 359.22 L 295.78 367.75 C 359.43 487.59 353.34 535.19 353.34 535.19 L 255.84 383.32 L 266.34 359.22 Z" fill="#8d8db3" fill-rule="nonzero" group-id="59" node-id="635" stroke="none" target-height="175.96997" target-width="103.59299" target-x="255.836" target-y="359.224"></path><path d="M 353.34 537.10 C 352.70 537.10 352.09 536.77 351.74 536.22 L 254.23 384.35 C 253.89 383.81 253.84 383.14 254.09 382.56 L 264.59 358.46 C 264.97 357.58 265.94 357.13 266.87 357.39 L 296.31 365.92 C 296.81 366.06 297.22 366.40 297.46 366.86 C 360.67 485.86 355.48 533.47 355.23 535.44 C 355.13 536.23 354.54 536.88 353.76 537.05 C 353.62 537.08 353.48 537.10 353.34 537.10 Z M 257.99 383.14 L 351.51 528.81 C 350.85 512.55 344.15 463.08 294.48 369.35 L 267.41 361.52 L 257.99 383.14 Z" fill="#6e6e96" fill-rule="nonzero" group-id="59" node-id="637" stroke="none" target-height="179.96701" target-width="106.83096" target-x="253.836" target-y="357.131"></path></g><g node-id="797"><path d="M 376.85 289.54 C 379.76 316.99 378.83 369.81 378.83 369.81 C 416.08 348.13 412.94 331.92 412.94 331.92 C 403.94 306.90 376.85 289.54 376.85 289.54" fill="#8d8db3" fill-rule="nonzero" group-id="60" node-id="642" stroke="none" target-height="80.26996" target-width="39.221985" target-x="376.854" target-y="289.54"></path><path d="M 378.83 371.71 C 378.50 371.71 378.17 371.63 377.87 371.45 C 377.27 371.11 376.92 370.47 376.93 369.78 C 376.94 369.25 377.82 316.75 374.96 289.74 C 374.88 289.01 375.23 288.30 375.86 287.92 C 376.48 287.53 377.26 287.54 377.88 287.94 C 379.01 288.66 405.62 305.94 414.74 331.27 C 414.96 332.27 417.77 349.36 379.79 371.46 C 379.49 371.63 379.16 371.71 378.83 371.71 Z M 379.14 293.47 C 381.18 317.21 380.92 354.96 380.78 366.43 C 413.00 346.81 411.10 332.40 411.07 332.25 C 404.30 313.52 386.55 298.93 379.14 293.47 Z" fill="#6e6e96" fill-rule="nonzero" group-id="60" node-id="644" stroke="none" target-height="84.18399" target-width="42.882996" target-x="374.883" target-y="287.531"></path></g><g node-id="799"><path d="M 298.22 51.22 C 369.27 40.07 402.45 134.89 399.52 186.81 C 396.77 235.38 375.00 271.06 319.23 282.19 C 217.87 302.42 199.16 250.77 190.87 206.81 C 159.44 136.36 208.29 65.33 298.22 51.22 Z" fill="#7b7b9c" fill-rule="nonzero" group-id="62" node-id="651" stroke="none" target-height="262.345" target-width="243.014" target-x="159.435" target-y="40.074"></path><path d="M 278.07 288.62 C 213.24 288.62 196.66 247.59 189.04 207.38 C 175.44 176.74 176.32 144.46 191.55 116.44 C 210.58 81.42 249.35 56.96 297.92 49.34 C 322.21 45.54 344.08 53.48 362.21 72.67 C 390.20 102.28 403.30 153.63 401.42 186.92 C 398.30 241.92 371.54 273.70 319.60 284.06 C 304.45 287.08 290.47 288.62 278.07 288.62 Z M 309.54 52.23 C 305.94 52.23 302.23 52.52 298.51 53.10 C 251.12 60.54 213.35 84.29 194.89 118.26 C 180.22 145.27 179.41 176.44 192.61 206.03 C 192.67 206.17 192.72 206.31 192.74 206.45 C 200.42 247.15 216.06 284.81 278.07 284.81 C 290.22 284.81 303.95 283.30 318.86 280.32 C 368.85 270.35 394.61 239.73 397.62 186.71 C 399.45 154.21 386.70 104.12 359.44 75.28 C 344.98 59.98 328.19 52.23 309.54 52.23 Z" fill="#6e6e96" fill-rule="nonzero" group-id="62" node-id="653" stroke="none" target-height="243.084" target-width="227.859" target-x="175.438" target-y="45.536"></path></g><g node-id="800"><path d="M 200.89 217.78 C 204.51 228.25 210.07 238.70 216.71 249.33 C 266.34 328.73 321.12 341.74 353.62 321.81 C 401.62 292.40 428.57 188.44 384.61 130.68 C 353.35 89.62 366.07 102.35 254.12 110.97 C 251.45 111.18 246.01 117.87 243.99 119.41 C 232.24 131.72 215.75 154.62 228.77 176.66 C 247.82 208.91 224.10 257.61 224.10 257.61 C 224.10 257.61 203.32 229.95 200.89 217.78 Z" fill="#e3b8a8" fill-rule="nonzero" group-id="63" node-id="658" stroke="none" target-height="252.12302" target-width="227.68501" target-x="200.89" target-y="89.61799"></path><path d="M 323.42 332.00 C 302.03 332.00 259.51 321.39 215.09 250.34 C 210.44 242.89 206.74 236.20 203.79 229.91 C 201.21 225.04 199.61 221.09 199.02 218.16 C 198.82 217.18 199.42 216.21 200.39 215.95 C 201.37 215.68 202.36 216.22 202.69 217.16 C 203.91 220.70 205.43 224.42 207.20 228.20 C 212.26 237.73 220.10 248.86 223.69 253.84 C 228.32 242.94 242.80 204.16 227.13 177.63 C 213.38 154.34 230.93 130.34 242.61 118.10 C 243.36 117.50 244.33 116.51 245.35 115.47 C 248.91 111.84 251.61 109.25 253.97 109.07 C 280.94 106.99 300.93 104.64 315.52 102.93 C 329.07 101.34 338.86 100.19 346.21 100.19 C 363.85 100.19 368.88 106.83 383.84 126.53 L 386.12 129.52 C 406.28 156.01 413.44 194.71 405.76 235.71 C 398.40 275.00 378.81 308.61 354.62 323.44 C 345.35 329.12 334.86 332.00 323.42 332.00 Z M 225.34 259.05 C 255.61 303.16 290.91 328.19 323.42 328.19 C 334.14 328.19 343.97 325.50 352.63 320.19 C 375.93 305.91 394.86 273.27 402.02 235.01 C 409.50 195.07 402.61 157.46 383.09 131.83 L 380.81 128.83 C 365.95 109.26 361.96 104.00 346.21 104.00 C 339.08 104.00 329.39 105.14 315.97 106.72 C 301.35 108.43 281.31 110.78 254.27 112.87 C 253.09 113.02 249.58 116.60 248.08 118.13 C 246.86 119.38 245.89 120.36 245.15 120.93 C 234.43 132.19 217.94 154.56 230.41 175.69 C 249.76 208.45 226.80 256.41 225.81 258.44 C 225.70 258.68 225.54 258.88 225.34 259.05 Z" fill="#6e6e96" fill-rule="nonzero" group-id="63" node-id="660" stroke="none" target-height="231.80699" target-width="214.618" target-x="198.825" target-y="100.192"></path></g><g node-id="801"><path d="M 192.42 219.97 C 182.03 226.40 179.68 242.10 187.15 254.99 C 194.61 267.91 209.08 273.15 219.45 266.70 C 229.83 260.25 221.56 252.19 214.09 239.29 C 206.62 226.39 202.79 213.53 192.42 219.97 Z" fill="#edc0af" fill-rule="nonzero" group-id="64" node-id="665" stroke="none" target-height="59.624985" target-width="50.154007" target-x="179.676" target-y="213.529"></path><path d="M 209.65 271.37 L 209.65 271.37 C 200.25 271.37 190.99 265.46 185.50 255.95 C 177.52 242.18 180.17 225.31 191.42 218.35 C 193.58 217.01 195.58 216.35 197.53 216.35 C 203.99 216.35 207.74 223.44 212.08 231.64 C 213.22 233.80 214.42 236.06 215.74 238.33 C 217.07 240.63 218.42 242.78 219.69 244.78 C 223.86 251.36 227.15 256.56 226.02 261.49 C 225.41 264.14 223.59 266.37 220.46 268.31 C 217.21 270.34 213.57 271.37 209.65 271.37 Z M 197.53 220.16 C 196.33 220.16 194.95 220.64 193.42 221.59 C 183.91 227.48 181.84 242.04 188.80 254.04 C 193.61 262.38 201.60 267.56 209.65 267.56 L 209.65 267.56 C 212.85 267.56 215.81 266.72 218.45 265.08 C 220.68 263.70 221.94 262.24 222.31 260.64 C 223.08 257.26 220.17 252.65 216.48 246.82 C 215.18 244.77 213.80 242.59 212.44 240.24 C 211.10 237.93 209.88 235.62 208.71 233.42 C 204.95 226.30 201.69 220.16 197.53 220.16 Z" fill="#6e6e96" fill-rule="nonzero" group-id="64" node-id="667" stroke="none" target-height="55.013977" target-width="49.62799" target-x="177.52" target-y="216.35101"></path></g><g node-id="802"><path d="M 277.75 465.51 L 237.55 465.51 C 236.50 465.51 235.65 464.66 235.65 463.61 C 235.65 462.56 236.50 461.70 237.55 461.70 L 277.75 461.70 C 278.81 461.70 279.66 462.56 279.66 463.61 C 279.66 464.66 278.81 465.51 277.75 465.51 Z" fill="#6e6e96" fill-rule="nonzero" group-id="65" node-id="672" stroke="none" target-height="3.809967" target-width="44.01001" target-x="235.647" target-y="461.70404"></path></g><g node-id="803"><path d="M 401.65 183.45 C 401.65 183.45 396.57 128.22 346.42 128.22 C 296.27 128.22 272.14 128.22 272.14 128.22 C 272.14 128.22 248.02 137.74 248.02 165.67 C 248.02 193.61 270.11 221.63 254.37 250.74 C 254.37 250.74 278.50 295.18 333.09 295.18 C 387.68 295.18 401.65 235.51 401.65 183.45 Z" fill="#edc0af" fill-rule="nonzero" group-id="66" node-id="677" stroke="none" target-height="166.96402" target-width="153.632" target-x="248.02" target-y="128.219"></path></g><g node-id="804"><path d="M 408.44 629.62 C 408.44 629.62 401.12 654.16 411.79 666.43 C 422.47 678.68 451.97 714.06 429.93 663.77 C 429.93 663.77 462.77 697.83 470.24 690.66 C 477.70 683.50 452.61 658.29 452.61 658.29 C 452.61 658.29 476.73 689.04 486.94 680.21 C 497.17 671.39 458.49 642.45 458.49 642.45 C 458.49 642.45 490.48 665.35 495.09 661.37 C 499.69 650.70 454.41 607.85 435.78 606.40 C 417.14 604.97 417.79 590.12 417.79 590.12 L 396.51 606.24 L 408.44 629.62 Z" fill="#e3b8a8" fill-rule="nonzero" group-id="67" node-id="682" stroke="none" target-height="123.94104" target-width="103.185" target-x="396.50604" target-y="590.12"></path><path d="M 467.47 693.56 C 459.46 693.56 444.31 680.35 435.38 671.84 C 440.55 684.92 440.29 688.60 439.10 690.43 C 438.49 691.36 437.52 691.88 436.37 691.88 L 436.37 691.88 C 432.13 691.88 424.58 684.09 412.12 669.72 L 410.36 667.68 C 400.07 655.85 405.23 634.19 406.41 629.82 L 394.81 607.11 C 394.39 606.29 394.62 605.28 395.36 604.73 L 416.64 588.60 C 417.22 588.16 418.02 588.08 418.67 588.44 C 419.33 588.78 419.72 589.47 419.69 590.20 C 419.67 590.73 419.43 603.24 435.93 604.51 C 452.01 605.75 484.34 634.53 494.00 650.53 C 497.08 655.63 498.00 659.42 496.84 662.13 C 496.73 662.39 496.55 662.62 496.34 662.81 C 495.62 663.43 494.67 663.74 493.49 663.74 C 490.42 663.74 485.07 661.32 479.40 658.16 C 485.37 664.34 490.39 671.00 490.57 676.08 C 490.64 678.32 489.82 680.25 488.19 681.66 C 484.32 685.00 478.54 684.26 471.22 679.22 C 474.24 685.16 474.32 689.38 471.56 692.04 C 470.50 693.05 469.13 693.56 467.47 693.56 Z M 429.93 661.86 C 430.43 661.86 430.93 662.06 431.30 662.45 C 438.62 670.04 459.40 689.75 467.47 689.75 C 468.34 689.75 468.71 689.48 468.92 689.29 C 471.42 686.89 468.11 679.50 460.07 669.53 C 455.00 664.40 451.27 659.66 451.12 659.46 C 450.50 658.67 450.60 657.53 451.35 656.86 C 452.11 656.20 453.25 656.23 453.96 656.94 C 454.15 657.12 458.47 661.48 463.03 667.14 C 473.39 677.64 481.73 682.22 485.70 678.77 C 486.46 678.11 486.80 677.30 486.76 676.22 C 486.46 667.60 465.43 650.02 457.35 643.98 C 456.51 643.35 456.33 642.17 456.95 641.33 C 457.56 640.49 458.75 640.29 459.60 640.90 C 469.88 648.26 488.17 659.93 493.49 659.93 L 493.49 659.93 C 493.57 658.87 493.24 656.65 490.74 652.49 C 480.76 635.96 449.46 609.37 435.64 608.30 C 421.35 607.20 417.39 598.64 416.29 593.64 L 398.93 606.80 L 410.14 628.75 C 410.36 629.19 410.41 629.69 410.27 630.16 C 410.20 630.40 403.38 653.85 413.23 665.18 L 415.00 667.22 C 419.77 672.73 432.18 687.04 436.00 688.01 C 436.18 686.75 435.81 681.94 428.18 664.53 C 427.81 663.68 428.10 662.70 428.87 662.18 C 429.19 661.97 429.56 661.86 429.93 661.86 Z" fill="#6e6e96" fill-rule="nonzero" group-id="67" node-id="684" stroke="none" target-height="105.47601" target-width="103.61401" target-x="394.391" target-y="588.082"></path></g><g node-id="805"><path d="M 178.87 430.17 C 178.87 430.17 253.98 537.96 392.58 625.42 L 416.72 610.65 L 430.68 592.00 L 276.29 402.70 L 244.53 359.88" fill="#8d8db3" fill-rule="nonzero" group-id="68" node-id="689" stroke="none" target-height="265.54004" target-width="251.81499" target-x="178.865" target-y="359.878"></path><path d="M 392.58 627.32 C 392.23 627.32 391.88 627.23 391.57 627.03 C 255.16 540.96 180.43 435.72 177.32 431.28 C 176.91 430.70 176.85 429.93 177.18 429.30 C 177.80 428.11 179.67 428.00 180.44 429.09 C 183.52 433.49 257.46 537.63 392.60 623.17 L 415.41 609.21 L 428.26 592.05 L 274.81 403.91 L 243.00 361.01 C 242.38 360.17 242.55 358.97 243.40 358.35 C 244.24 357.72 245.43 357.90 246.06 358.74 L 277.82 401.57 L 432.16 590.79 C 432.71 591.48 432.73 592.44 432.20 593.14 L 418.24 611.79 C 418.10 611.98 417.92 612.15 417.71 612.27 L 393.57 627.04 C 393.27 627.23 392.93 627.32 392.58 627.32 Z" fill="#6e6e96" fill-rule="nonzero" group-id="68" node-id="691" stroke="none" target-height="269.60004" target-width="255.877" target-x="176.852" target-y="357.722"></path></g><g node-id="806"><path d="M 396.47 675.67 L 365.51 608.80 L 341.81 606.04 L 366.89 682.18 Z" fill="#6e6e96" fill-opacity="0.25" fill-rule="nonzero" group-id="69" node-id="696" stroke="none" target-height="76.14099" target-width="54.658997" target-x="341.812" target-y="606.038"></path></g><g node-id="807"><path d="M 347.00 490.73 C 347.00 490.73 367.42 389.12 357.21 371.35 L 330.15 344.29 L 340.19 332.96 L 376.26 358.64 C 376.26 358.67 375.94 454.96 347.00 490.73 Z" fill="#6e6e96" fill-opacity="0.15" fill-rule="nonzero" group-id="70" node-id="701" stroke="none" target-height="157.76596" target-width="46.10498" target-x="330.152" target-y="332.961"></path></g><g node-id="808"><path d="M 341.98 356.13 L 307.51 390.58 L 295.78 367.75 L 310.69 366.24 L 330.15 344.30 Z" fill="#6e6e96" fill-opacity="0.15" fill-rule="nonzero" group-id="71" node-id="706" stroke="none" target-height="46.285004" target-width="46.193024" target-x="295.783" target-y="344.29996"></path></g><g node-id="809"><path d="M 316.30 796.84 L 303.88 716.73 L 245.48 716.73 L 223.89 710.38 L 251.82 829.73 L 251.82 958.92 L 227.44 953.58 L 218.04 836.14 L 190.26 665.90 L 247.71 691.94 L 314.08 690.72 L 320.39 676.09 L 328.29 715.26 Z" fill="#6e6e96" fill-opacity="0.25" fill-rule="nonzero" group-id="72" node-id="711" stroke="none" target-height="293.023" target-width="138.02602" target-x="190.26198" target-y="665.897"></path></g><g node-id="810"><path d="M 365.99 202.81 C 363.89 202.81 362.18 201.11 362.18 199.00 L 362.18 178.05 C 362.18 175.95 363.89 174.24 365.99 174.24 C 368.10 174.24 369.80 175.95 369.80 178.05 L 369.80 199.00 C 369.80 201.11 368.10 202.81 365.99 202.81 Z" fill="#6e6e96" fill-rule="nonzero" group-id="73" node-id="716" stroke="none" target-height="28.569016" target-width="7.617981" target-x="362.182" target-y="174.243"></path></g><g node-id="811"><path d="M 303.75 203.42 C 301.65 203.42 299.94 201.72 299.94 199.61 L 299.94 177.44 C 299.94 175.33 301.65 173.63 303.75 173.63 C 305.86 173.63 307.56 175.33 307.56 177.44 L 307.56 199.61 C 307.56 201.72 305.86 203.42 303.75 203.42 Z" fill="#6e6e96" fill-rule="nonzero" group-id="74" node-id="721" stroke="none" target-height="29.797012" target-width="7.617981" target-x="299.945" target-y="173.62599"></path></g><g node-id="812"><path d="M 335.84 270.47 C 326.11 270.47 316.96 266.67 310.08 259.78 C 308.59 258.30 308.59 255.88 310.08 254.40 C 311.57 252.91 313.98 252.91 315.47 254.40 C 320.91 259.85 328.15 262.85 335.84 262.85 C 343.53 262.85 350.76 259.85 356.21 254.40 C 357.69 252.91 360.11 252.91 361.60 254.40 C 363.08 255.88 363.08 258.30 361.60 259.79 C 354.71 266.68 345.56 270.47 335.84 270.47 Z" fill="#6e6e96" fill-rule="nonzero" group-id="75" node-id="726" stroke="none" target-height="17.559998" target-width="54.489014" target-x="308.594" target-y="252.91"></path></g><g node-id="813"><path d="M 178.87 430.17 C 178.87 430.17 214.11 541.14 310.28 597.37 L 295.04 656.41 L 245.52 656.41 L 197.91 627.84 L 153.89 434.69 L 190.26 665.90 L 247.71 691.94 L 314.08 690.74 L 350.28 595.47 L 178.87 430.17 Z" fill="#6e6e96" fill-opacity="0.25" fill-rule="nonzero" group-id="76" node-id="731" stroke="none" target-height="261.773" target-width="196.38103" target-x="153.894" target-y="430.16797"></path></g><path d="M 218.86 399.30 C 218.86 399.30 329.56 570.55 392.58 593.56 L 419.25 577.98 L 430.68 592.01 L 392.58 625.42 C 392.58 625.42 194.14 485.80 178.87 430.17" fill="#6e6e96" fill-opacity="0.25" fill-rule="nonzero" group-id="77" node-id="736" stroke="none" target-height="226.125" target-width="251.81499" target-x="178.865" target-y="399.297"></path></svg>